<svg width="522" height="185" viewBox="0 0 522 185" fill="none" xmlns="http://www.w3.org/2000/svg">
<path d="M140.32 2V111.68H155.68V146.48H140.32V182H94.72V146.48H0.640015V95.12L69.52 2H140.32ZM94.72 111.68V38.96H93.04L38.32 111.68H94.72Z" fill="#355FB6"/>
<path d="M261.214 0.320007C285.534 0.320007 302.734 3.28001 312.814 9.20001C328.334 18.32 336.094 36.48 336.094 63.68V120.32C336.094 147.52 328.414 165.76 313.054 175.04C302.654 181.28 285.374 184.4 261.214 184.4C230.494 184.4 210.094 178.8 200.014 167.6C190.894 157.52 186.334 141.76 186.334 120.32V63.68C186.334 36.48 194.014 18.32 209.374 9.20001C219.454 3.28001 236.734 0.320007 261.214 0.320007ZM261.214 37.76C248.894 37.76 241.054 39.52 237.694 43.04C233.694 47.2 231.694 56.64 231.694 71.36V112.64C231.694 127.52 233.534 136.96 237.214 140.96C240.894 144.96 248.894 146.96 261.214 146.96C273.374 146.96 281.294 144.96 284.974 140.96C288.814 136.96 290.734 127.6 290.734 112.88V70.88C290.734 56.16 288.894 46.96 285.214 43.28C281.534 39.6 273.534 37.76 261.214 37.76Z" fill="#355FB6"/>
<path d="M505.926 2V111.68H521.286V146.48H505.926V182H460.326V146.48H366.246V95.12L435.126 2H505.926ZM460.326 111.68V38.96H458.646L403.926 111.68H460.326Z" fill="#355FB6"/>
</svg>
