<svg width="16" height="16" viewBox="0 0 16 16" fill="none" xmlns="http://www.w3.org/2000/svg">
<g clip-path="url(#clip0)">
<path d="M6.22491 7.49758C8.11474 7.49758 10.0046 7.49758 11.8944 7.49758C12.0194 7.49758 12.0756 7.46946 12.1299 7.34386C12.468 6.5621 13.0453 6.06343 13.9125 6.00344C14.7248 5.9472 15.5176 6.50336 15.8525 7.29886C16.1531 8.01313 15.9725 8.81738 15.3677 9.39729C14.1181 10.5952 12.5979 9.81659 12.1318 8.65615C12.0806 8.52805 12.0237 8.49118 11.8881 8.49118C8.11349 8.49534 4.33925 8.49638 0.565429 8.4943C0.156806 8.4943 -0.0987379 8.1656 0.0355952 7.81628C0.114321 7.61194 0.292389 7.49571 0.539811 7.49571C1.62281 7.49571 2.7058 7.49571 3.7888 7.49571L6.22491 7.49758ZM12.9978 7.99313C12.9947 8.60678 13.3727 8.99297 13.9819 8.99735C14.6067 9.00235 14.9953 8.62241 14.9972 8.01C14.9972 7.3851 14.6223 7.00016 14.0062 6.99766C13.3902 6.99516 13.0015 7.37198 12.9978 7.99313V7.99313Z" fill="black"/>
<path d="M9.77445 14.4971C7.89004 14.4971 6.00542 14.4971 4.12059 14.4971C3.98626 14.4971 3.91815 14.5221 3.86379 14.6658C3.54514 15.5063 2.63168 16.0906 1.82131 15.9912C1.02281 15.8925 0.298034 15.2701 0.071855 14.4915C-0.13683 13.7685 0.139334 12.9736 0.794129 12.4524C2.07623 11.432 3.47517 12.3031 3.87129 13.3548C3.9169 13.476 3.97314 13.5041 4.09435 13.5041C7.84776 13.5012 11.6014 13.5012 15.3552 13.5041C15.4387 13.4997 15.5225 13.5039 15.6051 13.5166C15.7234 13.5456 15.827 13.6167 15.8965 13.7167C15.9661 13.8166 15.9967 13.9385 15.9828 14.0595C15.9688 14.1805 15.9112 14.2922 15.8207 14.3737C15.7303 14.4552 15.6132 14.5008 15.4914 14.5021C14.8878 14.5021 14.2837 14.5021 13.6795 14.5021L9.77445 14.4971ZM2.00125 12.9973C1.37957 12.9973 1.00156 13.3791 1.00156 14.0009C1.00156 14.6227 1.38769 15.0008 2.01 14.997C2.62231 14.9939 3.00032 14.614 3.00156 14.0003C3.00281 13.3866 2.62168 12.9961 2.00125 12.9973Z" fill="black"/>
<path d="M12.7598 2.49898C11.875 2.49898 10.9903 2.49898 10.1056 2.49898C9.98062 2.49898 9.91814 2.5196 9.86878 2.65145C9.5645 3.45883 8.75913 4.01687 7.94751 3.99937C7.18775 3.98375 6.41923 3.41508 6.1262 2.64021C6.08371 2.52772 6.03061 2.4971 5.91439 2.49773C4.14495 2.50148 2.37467 2.50148 0.603552 2.49773C0.530996 2.50135 0.458262 2.49674 0.386745 2.48398C0.268721 2.45376 0.165796 2.38146 0.0973147 2.28069C0.0288338 2.17991 -0.000488307 2.05758 0.014859 1.9367C0.0302064 1.81582 0.089167 1.70471 0.180659 1.62425C0.272151 1.54379 0.389875 1.49952 0.511706 1.49976C1.5947 1.49726 2.6777 1.49726 3.76069 1.49976C4.48421 1.49976 5.20774 1.49976 5.93126 1.49976C5.97312 1.50627 6.01588 1.49649 6.05075 1.47243C6.08562 1.44837 6.10994 1.41186 6.1187 1.3704C6.42736 0.548658 7.22336 -0.0156287 8.0406 -0.00438039C8.79599 0.0087426 9.56825 0.564906 9.86191 1.33041C9.91689 1.47476 9.98687 1.49788 10.1206 1.49726C11.8959 1.49351 13.6707 1.49351 15.4452 1.49726C15.8469 1.49726 16.1031 1.84346 15.955 2.18465C15.8594 2.40524 15.6801 2.4971 15.4427 2.4971C14.5504 2.49773 13.6539 2.49898 12.7598 2.49898ZM8.01124 2.9989C8.57731 2.99328 8.94845 2.66083 8.99343 2.12404C9.04342 1.50976 8.74351 1.1017 8.18118 1.01171C7.59887 0.9186 7.11339 1.22293 7.03092 1.7491C7.00499 1.91766 7.00499 2.0892 7.03092 2.25777C7.1034 2.72519 7.48265 3.0039 8.01374 2.9989L8.01124 2.9989Z" fill="black"/>
</g>
<defs>
<clipPath id="clip0">
<rect width="16" height="16" fill="white" transform="translate(16) rotate(90)"/>
</clipPath>
</defs>
</svg>
