<svg width="45" height="25" viewBox="0 0 45 25" fill="none" xmlns="http://www.w3.org/2000/svg">
<path fill-rule="evenodd" clip-rule="evenodd" d="M31.1142 7.15376C34.9782 5.50644 39.237 7.41186 40.5882 11.1734L31.0953 10.8508L31.1142 7.15376ZM0.976497 7.93945L0.896802 17.5387C0.877824 19.2278 1.70528 19.6985 4.17248 19.6188C4.53307 17.8196 5.44025 15.7206 8.97403 15.6675C11.8436 15.6219 13.0848 17.4021 13.7756 19.5846L27.1212 19.7668L27.3565 0.906038C23.3786 -0.308581 12.1168 0.367081 6.8788 0.367081C2.02792 0.526499 1.05621 5.10787 0.976497 7.93945ZM7.39881 11.9781H14.5651V14.6084L21.7313 9.35143L14.5651 4.09062V6.72105H7.39881V11.9781ZM34.9934 17.1174C36.9444 17.1174 38.5272 18.6964 38.5272 20.6474C38.5272 22.5984 36.9444 24.1812 34.9934 24.1812C33.0424 24.1812 31.4596 22.5984 31.4596 20.6474C31.4596 18.6964 33.0424 17.1174 34.9934 17.1174ZM34.9934 18.9204C35.9499 18.9204 36.7243 19.6947 36.7243 20.6474C36.7243 21.6039 35.9499 22.3782 34.9934 22.3782C34.0369 22.3782 33.2626 21.6039 33.2626 20.6474C33.2626 19.6947 34.0369 18.9204 34.9934 18.9204ZM8.87533 17.1174C10.8263 17.1174 12.4053 18.6964 12.4053 20.6474C12.4053 22.5984 10.8263 24.1812 8.87533 24.1812C6.92435 24.1812 5.34153 22.5984 5.34153 20.6474C5.34153 18.6964 6.92435 17.1174 8.87533 17.1174ZM8.87533 18.9204C9.82805 18.9204 10.6023 19.6947 10.6023 20.6474C10.6023 21.6039 9.82805 22.3782 8.87533 22.3782C7.91882 22.3782 7.14448 21.6039 7.14448 20.6474C7.14448 19.6947 7.91882 18.9204 8.87533 18.9204ZM28.9735 6.25794L28.8254 19.7554L30.283 19.744C30.3893 17.9373 31.7785 16.3469 32.6628 15.9369C34.0407 15.2993 38.9447 15.0412 39.9126 19.5049L42.9378 19.5163C44.7066 18.2371 44.8698 16.2406 44.4029 13.242C44.0196 10.7862 42.915 9.74239 41.5865 8.44806C38.0679 5.02056 37.5972 4.13997 31.1028 4.71312C29.8996 4.8194 29.1063 5.20654 28.9735 6.25794Z" fill="#193153"/>
</svg>
