<svg width="11" height="11" viewBox="0 0 11 11" fill="none" xmlns="http://www.w3.org/2000/svg">
<g clip-path="url(#clip0)">
<path fill-rule="evenodd" clip-rule="evenodd" d="M5.5 0C8.53757 0 11 2.46243 11 5.5C11 8.53757 8.53757 11 5.5 11C2.46243 11 0 8.53757 0 5.5C0 2.46243 2.46243 0 5.5 0ZM5.82941 2.24037C6.20338 2.28704 6.5056 2.37712 6.83718 2.53886C7.16331 2.69844 7.37204 2.84931 7.64818 3.12394C7.90692 3.38337 8.05042 3.57986 8.20262 3.88488C8.41461 4.31039 8.53529 4.81623 8.55593 5.37308C8.56356 5.56304 8.55811 5.60538 8.51462 5.65965C8.432 5.76495 8.25044 5.74756 8.18849 5.62925C8.16891 5.59017 8.16347 5.55654 8.15695 5.40456C8.14607 5.17118 8.12979 5.0203 8.09717 4.8401C7.96889 4.13346 7.62969 3.569 7.08829 3.1641C6.63714 2.82544 6.17076 2.66043 5.5598 2.62462C5.35325 2.61268 5.31736 2.60509 5.27062 2.56927C5.18363 2.50088 5.1793 2.34023 5.263 2.26534C5.3141 2.21865 5.34997 2.21214 5.52718 2.21756C5.61959 2.22082 5.75548 2.23168 5.82941 2.24037ZM3.34422 2.3576C3.38227 2.37062 3.44098 2.40101 3.47468 2.42272C3.68123 2.5595 4.25632 3.29436 4.4444 3.66127C4.55201 3.87076 4.58789 4.02599 4.55421 4.14105C4.5194 4.26479 4.4618 4.32993 4.20415 4.53726C4.10087 4.62083 4.0041 4.70659 3.98889 4.72939C3.94975 4.78584 3.91821 4.89655 3.91821 4.9747C3.91932 5.15598 4.03673 5.48489 4.19111 5.73781C4.31068 5.93429 4.52483 6.18611 4.73683 6.37934C4.98578 6.6073 5.20538 6.7625 5.45325 6.88517C5.77178 7.04365 5.96639 7.08381 6.10881 7.01761C6.14468 7.00132 6.18272 6.9796 6.19469 6.96985C6.20555 6.96007 6.28927 6.85803 6.38059 6.74515C6.55669 6.5237 6.59692 6.48789 6.7176 6.44664C6.87089 6.39454 7.02744 6.40864 7.18506 6.48897C7.30466 6.55084 7.56556 6.71258 7.73407 6.82981C7.95583 6.98504 8.42982 7.37148 8.49398 7.44856C8.60704 7.5875 8.62661 7.7655 8.5505 7.96199C8.47005 8.1693 8.15696 8.55791 7.93844 8.724C7.74058 8.8738 7.60035 8.93131 7.41553 8.94C7.26334 8.9476 7.20029 8.93458 7.00569 8.85425C5.47936 8.22575 4.26067 7.2879 3.29311 5.99941C2.78761 5.32641 2.40275 4.62845 2.13966 3.90442C1.98638 3.48217 1.97878 3.29871 2.10487 3.0827C2.15924 2.99152 2.3908 2.76574 2.5593 2.63983C2.83979 2.43141 2.96915 2.35433 3.07243 2.33263C3.14309 2.31743 3.26593 2.32937 3.34422 2.3576ZM5.90441 3.02733C6.56431 3.12394 7.07526 3.43006 7.4101 3.92721C7.59818 4.20727 7.71558 4.53617 7.75581 4.88895C7.76993 5.01812 7.76993 5.25368 7.75472 5.29276C7.74058 5.32966 7.69493 5.37959 7.65578 5.40021C7.61339 5.42192 7.52317 5.41976 7.47315 5.3937C7.38943 5.35137 7.36444 5.28407 7.36444 5.10171C7.36444 4.82058 7.2916 4.52423 7.1655 4.2941C7.022 4.03141 6.81327 3.81432 6.55888 3.66343C6.34036 3.53318 6.01749 3.43657 5.72287 3.4127C5.61632 3.404 5.55762 3.38229 5.51739 3.33562C5.45544 3.26506 5.4489 3.16954 5.50108 3.0903C5.55762 3.00238 5.64458 2.98825 5.90441 3.02733ZM6.13597 3.84688C6.35014 3.89247 6.51431 3.97389 6.65454 4.10523C6.835 4.27564 6.93394 4.48189 6.97741 4.77823C7.00676 4.97145 6.99481 5.04743 6.92632 5.11039C6.86219 5.169 6.74369 5.17117 6.67193 5.11581C6.61975 5.07673 6.60344 5.03549 6.59148 4.92369C6.57736 4.77498 6.55126 4.67077 6.50671 4.57416C6.41103 4.369 6.24252 4.26263 5.95769 4.22789C5.82396 4.2116 5.78374 4.19641 5.74027 4.1454C5.6609 4.05096 5.69133 3.8979 5.80113 3.84146C5.84246 3.82083 5.85985 3.81866 5.95116 3.82409C6.00769 3.82735 6.09141 3.8371 6.13597 3.84688Z" fill="white"/>
<path d="M0.13648 10.9468L1.19175 8.77906L2.3728 10.046L0.13648 10.9468Z" fill="white"/>
</g>
<defs>
<clipPath id="clip0">
<rect width="11" height="11" fill="white"/>
</clipPath>
</defs>
</svg>
