<svg width="19" height="20" viewBox="0 0 19 20" fill="none" xmlns="http://www.w3.org/2000/svg">
<path d="M18.7387 5.41238L13.6434 0.117891C13.5709 0.0425781 13.4708 0 13.3663 0H5.77211C4.92223 0 4.23078 0.691172 4.23078 1.5407V6.92309H1.15316C0.517305 6.92309 0 7.44023 0 8.07594V13.8472C0 14.4829 0.517305 15 1.15316 15H4.23078V18.462C4.23078 19.31 4.92223 20 5.77211 20H17.3048C18.1547 20 18.8462 19.3104 18.8462 18.4629V5.6791C18.8462 5.57965 18.8076 5.48406 18.7387 5.41238ZM13.4616 1.03832L17.6443 5.38461H13.4616V1.03832ZM1.15316 14.2308C0.941445 14.2308 0.769258 14.0587 0.769258 13.8472V8.07594C0.769258 7.86441 0.941484 7.6923 1.15316 7.6923H11.5392C11.7509 7.6923 11.9231 7.86441 11.9231 8.07594V13.8472C11.9231 14.0587 11.7509 14.2308 11.5392 14.2308H1.15316ZM18.0769 18.4629C18.0769 18.8863 17.7305 19.2308 17.3048 19.2308H5.77211C5.34637 19.2308 5 18.8859 5 18.462V15H11.5392C12.175 15 12.6923 14.4829 12.6923 13.8472V8.07594C12.6923 7.44023 12.175 6.92309 11.5392 6.92309H5V1.5407C5 1.11527 5.34637 0.769219 5.77211 0.769219H12.6923V5.76922C12.6923 5.98164 12.8645 6.15383 13.0769 6.15383H18.0769V18.4629Z" fill="#A5AEB9"/>
<path d="M4.59804 9.37297C4.47034 9.20695 4.31183 9.09914 4.12253 9.04957C3.99933 9.01652 3.73491 9 3.32925 9H2.25879V12.3038H2.92586V11.0575H3.36081C3.66281 11.0575 3.89343 11.0417 4.05269 11.0102C4.16987 10.9846 4.28519 10.9324 4.39862 10.8535C4.51206 10.7747 4.60557 10.6661 4.67921 10.5279C4.75284 10.3897 4.78964 10.2192 4.78964 10.0164C4.7896 9.75343 4.72573 9.53898 4.59804 9.37297ZM4.02675 10.2823C3.97644 10.3559 3.90695 10.41 3.81827 10.4446C3.7296 10.4791 3.55386 10.4964 3.29093 10.4964H2.92586V9.5589H3.24812C3.48851 9.5589 3.64851 9.5664 3.72812 9.58144C3.83628 9.60097 3.9257 9.6498 3.99628 9.72792C4.06691 9.80605 4.10222 9.90523 4.10222 10.0254C4.10226 10.123 4.07706 10.2087 4.02675 10.2823Z" fill="#A5AEB9"/>
<path d="M7.99648 9.90257C7.92438 9.69148 7.81918 9.51308 7.68098 9.36734C7.54277 9.2216 7.37672 9.12019 7.18293 9.06309C7.03871 9.02102 6.8291 9 6.55418 9H5.33496V12.3038H6.59023C6.83664 12.3038 7.03344 12.2805 7.18066 12.2339C7.3775 12.1708 7.53375 12.0829 7.64941 11.9702C7.80266 11.8215 7.92059 11.6269 8.00324 11.3865C8.07086 11.1897 8.10465 10.9553 8.10465 10.6834C8.10465 10.3739 8.06859 10.1137 7.99648 9.90257ZM7.34742 11.2592C7.30234 11.4073 7.24414 11.5135 7.17277 11.5781C7.10141 11.6427 7.01164 11.6885 6.90348 11.7156C6.82086 11.7366 6.68637 11.7471 6.50008 11.7471H6.00203V9.5589H6.30176C6.57367 9.5589 6.75625 9.56941 6.84938 9.59047C6.97406 9.6175 7.07699 9.66933 7.15813 9.74597C7.23926 9.82261 7.30234 9.92925 7.34742 10.066C7.3925 10.2027 7.41504 10.3987 7.41504 10.6542C7.41504 10.9096 7.3925 11.1112 7.34742 11.2592Z" fill="#A5AEB9"/>
<path d="M10.9397 9.5589V9H8.6748V12.3038H9.34187V10.8998H10.7211V10.3409H9.34187V9.5589H10.9397Z" fill="#A5AEB9"/>
</svg>
