<svg width="14" height="15" viewBox="0 0 14 15" fill="none" xmlns="http://www.w3.org/2000/svg">
<g clip-path="url(#clip0)">
<path d="M10.2854 0.000353615C10.4112 0.024376 10.5374 0.0459255 10.6636 0.072774C11.4966 0.252942 12.1719 0.691349 12.67 1.40071C13.2934 2.28848 13.4206 3.25149 13.0534 4.28198C12.8722 4.79104 12.5655 5.21285 12.1977 5.59155C10.5233 7.31409 8.84835 9.0364 7.17285 10.7585C6.69529 11.2509 6.12869 11.5328 5.45173 11.542C4.78439 11.5509 4.18375 11.3626 3.73748 10.8129C3.42805 10.4331 3.31219 9.9834 3.32147 9.49907C3.328 9.15428 3.3868 8.81796 3.5391 8.50285C3.67663 8.22023 3.87157 7.98425 4.08508 7.76345C4.54349 7.28866 5.005 6.81587 5.4696 6.34508C5.95896 5.84508 6.44878 5.34544 6.93906 4.84615C7.42521 4.3484 7.91307 3.85099 8.39441 3.3497C8.62683 3.10807 8.97889 3.08404 9.20993 3.30484C9.44097 3.52563 9.45919 3.8895 9.2254 4.14032C8.906 4.48299 8.57388 4.81365 8.24691 5.14891C7.58221 5.83072 6.91694 6.51229 6.25109 7.19363C5.80047 7.65524 5.34939 8.11672 4.89785 8.57809C4.6644 8.81514 4.50659 9.0868 4.46189 9.42841C4.40654 9.84951 4.65821 10.213 5.06425 10.3261C5.56965 10.4674 5.99598 10.3148 6.35939 9.93995C6.89619 9.38649 7.43414 8.83421 7.97324 8.28311C8.46168 7.78124 8.94966 7.27912 9.43719 6.77677C9.9254 6.27478 10.4181 5.77737 10.9015 5.27043C11.1968 4.96061 11.51 4.66069 11.761 4.31413C12.3111 3.55107 12.252 2.63998 11.6362 1.9338C11.0418 1.25305 10.2974 1.03579 9.43925 1.24598C9.03665 1.34419 8.70418 1.577 8.41298 1.87692C7.31851 3.00362 6.22358 4.12949 5.1282 5.25453C4.24965 6.15749 3.37144 7.0608 2.49357 7.96446C2.27697 8.18773 2.05659 8.40782 1.8558 8.64522C1.42466 9.15569 1.19534 9.75731 1.14274 10.4289C1.08117 11.1358 1.26082 11.8427 1.65089 12.4284C2.06622 13.0643 2.63282 13.5023 3.35448 13.7055C4.37938 13.9941 5.32142 13.8001 6.15035 13.1187C6.45153 12.8714 6.71042 12.5686 6.98513 12.2874C7.52101 11.7382 8.05553 11.1876 8.58866 10.6355L10.3077 8.86424L12.0388 7.0767C12.3596 6.74639 12.6814 6.41714 13.0015 6.08401C13.1648 5.91338 13.3553 5.84202 13.5829 5.90031C13.6806 5.92235 13.7701 5.97291 13.8406 6.04591C13.9111 6.11891 13.9596 6.21125 13.9803 6.31187C14.0429 6.57046 13.9397 6.77536 13.763 6.95659C12.9943 7.74485 12.2271 8.53476 11.4616 9.32632C10.7574 10.0508 10.0527 10.7745 9.34746 11.4975C8.62373 12.2433 7.9062 12.9954 7.178 13.7362C6.456 14.471 5.58169 14.8797 4.57088 14.9811C4.54824 14.9851 4.52594 14.9909 4.50418 14.9984H3.89736C3.75227 14.974 3.60718 14.9507 3.46243 14.9249C2.59809 14.7713 1.85787 14.3668 1.23591 13.7372C0.881377 13.3779 0.594009 12.9547 0.388073 12.4888C0.00762956 11.6497 -0.0986191 10.7067 0.0851752 9.80041C0.257081 8.92359 0.672405 8.17961 1.28852 7.54831C3.41281 5.37029 5.53539 3.19085 7.65625 1.01C8.13517 0.5186 8.70556 0.197478 9.3753 0.0671216C9.48532 0.0459254 9.595 0.0226093 9.70502 0L10.2854 0.000353615Z" fill="white"/>
</g>
<defs>
<clipPath id="clip0">
<rect width="14" height="15" fill="white"/>
</clipPath>
</defs>
</svg>
