<svg width="14" height="14" viewBox="0 0 14 14" fill="none" xmlns="http://www.w3.org/2000/svg">
<path d="M9.54786 1H4.45215C2.54558 1 1 2.54558 1 4.45215V9.54785C1 11.4544 2.54558 13 4.45215 13H9.54786C11.4544 13 13 11.4544 13 9.54785V4.45215C13 2.54558 11.4544 1 9.54786 1Z" stroke="white" stroke-width="1.5" stroke-miterlimit="10"/>
<path d="M6.99993 9.67271C8.47633 9.67271 9.67319 8.47584 9.67319 6.99944C9.67319 5.52303 8.47633 4.32617 6.99993 4.32617C5.52352 4.32617 4.32666 5.52303 4.32666 6.99944C4.32666 8.47584 5.52352 9.67271 6.99993 9.67271Z" stroke="white" stroke-width="1.5" stroke-miterlimit="10"/>
<path d="M10.432 4.31319C10.7747 4.31319 11.0525 4.0354 11.0525 3.69273C11.0525 3.35006 10.7747 3.07227 10.432 3.07227C10.0893 3.07227 9.81152 3.35006 9.81152 3.69273C9.81152 4.0354 10.0893 4.31319 10.432 4.31319Z" fill="white"/>
</svg>
