<svg width="33" height="43" viewBox="0 0 33 43" fill="none" xmlns="http://www.w3.org/2000/svg">
<path d="M32.09 31.4373C31.7559 31.5625 31.2435 31.6916 30.5565 31.8131C29.8733 31.9231 29.0572 31.9915 28.0969 32.0104C26.8443 32.0104 25.755 31.8548 24.8288 31.5473C23.9027 31.2399 23.1397 30.792 22.521 30.2188C21.9137 29.6343 21.4507 28.9397 21.1508 28.1161C20.8509 27.2924 20.6953 26.3852 20.6953 25.3831V10.8647H16.1025V7.52068H20.6953V0.988281H24.6049V7.52068H31.7408V10.8647H24.6049V24.772C24.6049 25.3224 24.6846 25.8349 24.8478 26.3093C24.9996 26.7724 25.2577 27.1823 25.5993 27.5277C25.9448 27.8693 26.3812 28.135 26.9202 28.321C27.4516 28.5222 28.0969 28.6133 28.8484 28.6133C29.3723 28.6133 29.9226 28.5715 30.4958 28.4842C31.0727 28.4083 31.6041 28.2983 32.09 28.1616V31.4373Z" fill="#193153"/>
<path d="M7.26953 42.4766L14.1511 29.856L17.5406 31.7045L17.6469 15.3906L3.99008 24.3143L7.37962 26.1628L0.498047 38.7796L7.26953 42.4766Z" fill="#193153"/>
</svg>
