<svg width="19" height="20" viewBox="0 0 19 20" fill="none" xmlns="http://www.w3.org/2000/svg">
<path d="M18.4537 11.9946C18.5915 11.3502 18.6627 10.6823 18.6627 9.99715C18.6627 4.8582 14.6063 0.691378 9.60094 0.691378C9.07369 0.691378 8.55594 0.738377 8.05125 0.827427C7.24138 0.304256 6.28306 0 5.25588 0C2.35244 0 0 2.41549 0 5.39745C0 6.39308 0.263625 7.3244 0.722 8.12709C0.602062 8.73065 0.537938 9.35648 0.537938 9.99715C0.537938 15.1373 4.59562 19.3042 9.59975 19.3042C10.1674 19.3042 10.7219 19.2497 11.2599 19.1483C12.0009 19.5565 12.8464 19.789 13.7453 19.789C16.6476 19.789 19 17.3723 19 14.3928C19 13.5307 18.8029 12.7181 18.4537 11.9946ZM14.2488 14.4447C13.8296 15.0545 13.2109 15.5368 12.407 15.8782C11.6126 16.2183 10.6614 16.3915 9.576 16.3915C8.2745 16.3915 7.18319 16.1565 6.33056 15.6914C5.72137 15.3538 5.22025 14.8974 4.83906 14.3309C4.45312 13.762 4.25956 13.1968 4.25956 12.6501C4.25956 12.31 4.38662 12.0144 4.63719 11.7732C4.88537 11.532 5.20363 11.4121 5.58363 11.4121C5.89475 11.4121 6.16313 11.5073 6.38163 11.6965C6.58944 11.8783 6.76875 12.148 6.91244 12.493C7.07275 12.8715 7.24731 13.1906 7.43137 13.4392C7.61069 13.6828 7.866 13.8857 8.19256 14.0452C8.5215 14.2035 8.96444 14.2864 9.50831 14.2864C10.2576 14.2864 10.8727 14.1219 11.3335 13.7979C11.7859 13.4825 12.0044 13.1015 12.0044 12.6365C12.0044 12.2704 11.8892 11.981 11.6553 11.7547C11.4083 11.5172 11.0829 11.3329 10.6887 11.2055C10.2766 11.0744 9.71731 10.9309 9.02619 10.7825C8.0845 10.576 7.28531 10.3311 6.65119 10.0528C6.00162 9.76834 5.47675 9.37503 5.09437 8.88278C4.70487 8.38187 4.50775 7.75481 4.50775 7.01767C4.50775 6.31516 4.71438 5.68191 5.12288 5.13524C5.52781 4.59228 6.11919 4.16806 6.88275 3.87988C7.63444 3.59417 8.52862 3.44947 9.54156 3.44947C10.3502 3.44947 11.0616 3.54594 11.6565 3.73641C12.2538 3.92688 12.7573 4.18413 13.1528 4.50199C13.5518 4.82357 13.8486 5.16369 14.0339 5.51989C14.2215 5.87857 14.3177 6.236 14.3177 6.58107C14.3177 6.91378 14.193 7.2168 13.946 7.479C13.6966 7.74491 13.3831 7.87849 13.015 7.87849C12.6801 7.87849 12.4165 7.79315 12.2348 7.62865C12.065 7.47405 11.8881 7.23287 11.6933 6.88904C11.4677 6.44874 11.1934 6.10119 10.8799 5.85507C10.5747 5.61636 10.0664 5.49763 9.36581 5.49763C8.71744 5.49763 8.18781 5.6312 7.79594 5.89588C7.41831 6.14943 7.23425 6.44131 7.23425 6.78762C7.23425 6.99912 7.29362 7.17598 7.41594 7.32811C7.54419 7.49137 7.72587 7.63113 7.95625 7.74986C8.19375 7.87231 8.43956 7.97125 8.68538 8.04051C8.93713 8.11225 9.35869 8.21985 9.93937 8.35714C10.6732 8.51792 11.3466 8.69973 11.9427 8.89639C12.5471 9.09304 13.0673 9.33669 13.4948 9.62239C13.9282 9.91305 14.2714 10.2841 14.516 10.7293C14.7606 11.1783 14.8841 11.7287 14.8841 12.3694C14.8829 13.1349 14.6692 13.8337 14.2488 14.4447Z" fill="white"/>
</svg>
