<svg width="11" height="8" viewBox="0 0 11 8" fill="none" xmlns="http://www.w3.org/2000/svg">
<path fill-rule="evenodd" clip-rule="evenodd" d="M9.251 0.0669091C9.91031 0.106182 10.2341 0.209454 10.5325 0.770909C10.8432 1.33164 11 2.29745 11 3.99855V4.00073V4.00436C11 5.69745 10.8433 6.67054 10.5332 7.22545C10.2348 7.78691 9.911 7.88873 9.25169 7.936C8.59237 7.976 6.93619 8 5.50137 8C4.06381 8 2.40694 7.976 1.74831 7.93527C1.09037 7.888 0.766562 7.78618 0.465438 7.22473C0.158125 6.66982 0 5.69673 0 4.00364V4.00218V4V3.99782C0 2.29745 0.158125 1.33164 0.465438 0.770909C0.766562 0.208727 1.09106 0.106182 1.749 0.0661819C2.40694 0.0196364 4.06381 0 5.50137 0C6.93619 0 8.59237 0.0196364 9.251 0.0669091ZM7.56249 4L4.12499 1.81819V6.18182L7.56249 4Z" fill="white"/>
</svg>
