<svg width="14" height="11" viewBox="0 0 14 11" fill="none" xmlns="http://www.w3.org/2000/svg">
<path d="M13.405 0.981157C13.0252 0.266578 12.6131 0.135141 11.774 0.085157C10.9358 0.0249917 8.82787 0 7.00175 0C5.17212 0 3.06337 0.0249918 2.226 0.0842315C1.38862 0.135141 0.975625 0.265653 0.592375 0.981157C0.20125 1.69481 0 2.92403 0 5.08813C0 5.08998 0 5.09091 0 5.09091C0 5.09276 0 5.09369 0 5.09369V5.09554C0 7.25038 0.20125 8.48886 0.592375 9.19511C0.975625 9.90969 1.38775 10.0393 2.22512 10.0994C3.06337 10.1513 5.17212 10.1818 7.00175 10.1818C8.82787 10.1818 10.9357 10.1513 11.7749 10.1004C12.614 10.0402 13.0261 9.91061 13.4059 9.19603C13.8005 8.48979 14 7.25131 14 5.09646C14 5.09646 14 5.09369 14 5.09184C14 5.09184 14 5.08998 14 5.08906C14 2.92403 13.8005 1.69481 13.405 0.981157Z" fill="white"/>
<path d="M5.25 7.8672V2.31348L9.625 5.09034L5.25 7.8672Z" fill="#193153"/>
</svg>
