<svg width="16" height="10" viewBox="0 0 16 10" fill="none" xmlns="http://www.w3.org/2000/svg">
<path d="M9.41597 2.24815C9.41597 2.64913 9.39979 3.02707 9.39747 3.40039C9.39245 3.60402 9.4166 3.80732 9.46917 4.00416C9.50104 4.12981 9.57234 4.24204 9.67269 4.32449C9.69749 4.34391 9.72658 4.35717 9.75754 4.36318C9.7885 4.36919 9.82046 4.36778 9.85077 4.35905C9.95881 4.32467 10.0576 4.26637 10.1399 4.18852C10.3376 4.00691 10.5158 3.80534 10.6718 3.58705C11.2248 2.82417 11.6808 1.99593 12.0293 1.12126C12.0918 0.973779 12.1519 0.828596 12.2097 0.678806C12.2511 0.564322 12.3335 0.469113 12.441 0.411486C12.5083 0.386792 12.5797 0.375062 12.6515 0.376919C12.6838 0.376919 12.7185 0.376919 12.7532 0.376919H15.0659C15.2232 0.376919 15.3805 0.376919 15.5285 0.376919C15.608 0.387129 15.6858 0.40806 15.7597 0.43914C15.8197 0.456578 15.8721 0.493501 15.9085 0.544032C15.945 0.594563 15.9635 0.655795 15.961 0.717982C15.961 0.876192 15.9295 1.03284 15.8684 1.17888C15.7134 1.55299 15.518 1.9092 15.2856 2.24124C14.8532 2.90032 14.3606 3.51561 13.898 4.14474C13.7431 4.35444 13.5974 4.57106 13.4586 4.78999C13.3764 4.91114 13.3389 5.05688 13.3522 5.20249C13.3719 5.34353 13.4368 5.47447 13.5372 5.57582C13.7061 5.75556 13.8772 5.93301 14.0576 6.10124C14.5409 6.5311 14.9944 6.99305 15.4152 7.48392C15.6113 7.71695 15.7804 7.97128 15.9193 8.24209C15.9534 8.31519 15.9768 8.3928 15.9887 8.47254C16.0096 8.56071 16.0013 8.65326 15.9651 8.73635C15.9288 8.81943 15.8665 8.88857 15.7875 8.93344C15.6329 9.03075 15.4546 9.08414 15.2718 9.08784C14.5895 9.10627 13.9073 9.10166 13.2273 9.14084C12.79 9.16206 12.3612 9.01523 12.0293 8.73064C11.7787 8.52536 11.5466 8.29866 11.3355 8.05313C11.1043 7.80194 10.8892 7.54845 10.6417 7.30878C10.5366 7.20591 10.4175 7.11826 10.2879 7.04838C10.2048 6.99769 10.1063 6.97819 10.01 6.9934C9.91379 7.00861 9.82616 7.05752 9.76288 7.13134C9.64834 7.26888 9.56828 7.4316 9.5293 7.60606C9.45511 7.87197 9.41394 8.14594 9.40672 8.42184C9.40322 8.49051 9.39628 8.55896 9.38591 8.62694C9.3729 8.7141 9.33569 8.7959 9.27847 8.8631C9.22125 8.93029 9.14632 8.9802 9.06213 9.00718C8.95003 9.05392 8.8298 9.07819 8.70828 9.07862C8.40301 9.07862 8.09773 9.07862 7.7832 9.07862C7.24434 9.07241 6.71095 8.97018 6.20824 8.77673C5.30047 8.43598 4.48823 7.88272 3.84002 7.1636C3.19678 6.45847 2.62363 5.69287 2.12862 4.87756C1.34456 3.61094 0.649098 2.29196 0.0471734 0.929993C0.00788673 0.840156 -0.00725688 0.741676 0.00323186 0.644238C0.0054526 0.607808 0.0176111 0.572673 0.0383963 0.542622C0.0591815 0.51257 0.0878049 0.488742 0.12118 0.473707C0.235218 0.416329 0.36115 0.38634 0.488902 0.386137H2.78774C2.92406 0.395338 3.05477 0.443791 3.16398 0.525611C3.27318 0.60743 3.35619 0.719093 3.40292 0.847032C3.60149 1.37011 3.84041 1.87707 4.11755 2.36338C4.41759 2.90475 4.7553 3.42453 5.1282 3.9189C5.2547 4.10176 5.41105 4.26222 5.59075 4.39362C5.64798 4.44129 5.71827 4.47073 5.79249 4.47813C5.86672 4.48552 5.94146 4.47053 6.00704 4.4351C6.07874 4.39235 6.1347 4.3277 6.16661 4.25074C6.25061 4.05846 6.30218 3.85368 6.31925 3.64467C6.36974 3.15777 6.37979 2.66756 6.34932 2.17902C6.34369 1.88742 6.31351 1.5968 6.25912 1.31023C6.24524 1.23879 6.21981 1.16966 6.20593 1.09822C6.18925 1.03179 6.15827 0.969758 6.11514 0.916437C6.07201 0.863116 6.01776 0.819777 5.95616 0.78942C5.79741 0.691095 5.61745 0.631849 5.43117 0.616585C5.37798 0.616585 5.35948 0.588931 5.3826 0.542841C5.40241 0.496964 5.4289 0.454254 5.46124 0.416095C5.63037 0.232807 5.85875 0.114541 6.10648 0.0819464C6.4654 0.0205711 6.82938 -0.00643761 7.19346 0.00128979C7.59818 0.00128979 8.00522 0.00128979 8.41226 0.026639C8.58888 0.0377978 8.76396 0.0663591 8.93493 0.111905C9.07108 0.138867 9.19408 0.210918 9.28393 0.316349C9.37378 0.42178 9.42521 0.554392 9.42985 0.692632C9.44953 0.914823 9.45648 1.13795 9.45066 1.36093C9.44604 1.66282 9.42754 1.96701 9.41597 2.24815Z" fill="white"/>
</svg>
