<svg width="11" height="7" viewBox="0 0 11 7" fill="none" xmlns="http://www.w3.org/2000/svg">
<path d="M6.47348 1.54561C6.47348 1.82128 6.46235 2.08111 6.46076 2.33777C6.45731 2.47776 6.47391 2.61754 6.51005 2.75286C6.53196 2.83925 6.58098 2.9164 6.64997 2.97308C6.66703 2.98644 6.68702 2.99555 6.70831 2.99969C6.7296 3.00382 6.75156 3.00285 6.7724 2.99685C6.84668 2.97321 6.91463 2.93313 6.97115 2.87961C7.10708 2.75475 7.22964 2.61617 7.33685 2.4661C7.71705 1.94162 8.03055 1.3722 8.27017 0.77087C8.3131 0.669473 8.35444 0.56966 8.39419 0.466679C8.42262 0.387971 8.47925 0.322515 8.55319 0.282897C8.59947 0.26592 8.64857 0.257855 8.69788 0.259132C8.72014 0.259132 8.74399 0.259132 8.76784 0.259132H10.3578C10.4659 0.259132 10.5741 0.259132 10.6758 0.259132C10.7305 0.266151 10.784 0.280541 10.8348 0.301909C10.876 0.313897 10.9121 0.339282 10.9371 0.374022C10.9622 0.408762 10.9749 0.450859 10.9732 0.493612C10.9732 0.602382 10.9515 0.710075 10.9096 0.810478C10.8029 1.06768 10.6686 1.31258 10.5089 1.54085C10.2116 1.99397 9.87288 2.41699 9.55488 2.84951C9.44835 2.99368 9.34819 3.14261 9.25279 3.29312C9.1963 3.37641 9.17046 3.4766 9.17965 3.57671C9.19321 3.67368 9.23782 3.7637 9.30685 3.83337C9.42291 3.95695 9.54057 4.07894 9.66459 4.1946C9.99686 4.49013 10.3087 4.80772 10.5979 5.1452C10.7328 5.30541 10.849 5.48026 10.9445 5.66644C10.968 5.71669 10.9841 5.77005 10.9922 5.82487C11.0066 5.88549 11.0009 5.94912 10.976 6.00624C10.951 6.06336 10.9082 6.1109 10.8539 6.14174C10.7476 6.20864 10.625 6.24535 10.4993 6.24789C10.0303 6.26056 9.56124 6.25739 9.09379 6.28433C8.79313 6.29891 8.49832 6.19797 8.27017 6.00232C8.09787 5.86118 7.93827 5.70533 7.79317 5.53652C7.63418 5.36383 7.48631 5.18956 7.31618 5.02479C7.24389 4.95407 7.162 4.8938 7.07291 4.84576C7.01578 4.81091 6.94805 4.79751 6.88189 4.80796C6.81573 4.81842 6.75549 4.85204 6.71198 4.90279C6.63323 4.99736 6.57819 5.10922 6.55139 5.22917C6.50039 5.41198 6.47208 5.60034 6.46712 5.79002C6.46472 5.83723 6.45994 5.88429 6.45281 5.93102C6.44387 5.99095 6.41828 6.04718 6.37895 6.09338C6.33961 6.13957 6.28809 6.17389 6.23021 6.19244C6.15315 6.22457 6.07049 6.24126 5.98695 6.24155C5.77707 6.24155 5.56719 6.24155 5.35095 6.24155C4.98049 6.23729 4.61378 6.167 4.26817 6.034C3.64407 5.79974 3.08566 5.41937 2.64002 4.92497C2.19779 4.4402 1.80375 3.91385 1.46342 3.35332C0.924386 2.48252 0.446255 1.57572 0.0324317 0.639371C0.00542213 0.577607 -0.0049891 0.509902 0.0022219 0.442914C0.00374866 0.417868 0.0121076 0.393713 0.0263974 0.373053C0.0406873 0.352392 0.0603659 0.33601 0.0833114 0.325674C0.161713 0.286226 0.248291 0.265608 0.33612 0.265469H1.91657C2.01029 0.271795 2.10015 0.305107 2.17523 0.361357C2.25031 0.417608 2.30738 0.494377 2.33951 0.582335C2.47602 0.941948 2.64028 1.29049 2.83082 1.62482C3.03709 1.99702 3.26927 2.35436 3.52564 2.69424C3.61261 2.81996 3.72009 2.93028 3.84364 3.02061C3.88299 3.05339 3.93131 3.07363 3.98234 3.07871C4.03337 3.0838 4.08475 3.07349 4.12984 3.04913C4.17913 3.01974 4.21761 2.97529 4.23955 2.92239C4.2973 2.79019 4.33275 2.64941 4.34449 2.50571C4.37919 2.17097 4.38611 1.83395 4.36516 1.49808C4.36128 1.2976 4.34054 1.0978 4.30315 0.900784C4.29361 0.85167 4.27612 0.804141 4.26658 0.755026C4.25511 0.709352 4.23381 0.666709 4.20416 0.630051C4.17451 0.593393 4.13721 0.563596 4.09486 0.542727C3.98572 0.475128 3.862 0.434396 3.73393 0.423902C3.69736 0.423902 3.68464 0.40489 3.70054 0.373204C3.71415 0.341663 3.73237 0.3123 3.7546 0.286066C3.87088 0.160055 4.02789 0.0787469 4.19821 0.0563382C4.44496 0.0141426 4.6952 -0.00442586 4.9455 0.000886731C5.22375 0.000886731 5.50359 0.000886731 5.78343 0.0183143C5.90485 0.025986 6.02522 0.0456218 6.14276 0.0769344C6.23637 0.0954709 6.32093 0.145006 6.3827 0.21749C6.44447 0.289974 6.47983 0.381145 6.48302 0.476185C6.49655 0.628941 6.50133 0.782342 6.49733 0.93564C6.49415 1.14319 6.48143 1.35232 6.47348 1.54561Z" fill="white"/>
</svg>
