<svg width="14" height="14" viewBox="0 0 14 14" fill="none" xmlns="http://www.w3.org/2000/svg">
<path d="M9.54786 1H4.45215C2.54558 1 1 2.54558 1 4.45215V9.54785C1 11.4544 2.54558 13 4.45215 13H9.54786C11.4544 13 13 11.4544 13 9.54785V4.45215C13 2.54558 11.4544 1 9.54786 1Z" stroke="white" stroke-width="1.5" stroke-miterlimit="10"/>
<path d="M6.99981 9.67271C8.47621 9.67271 9.67306 8.47584 9.67306 6.99944C9.67306 5.52303 8.47621 4.32617 6.99981 4.32617C5.5234 4.32617 4.32654 5.52303 4.32654 6.99944C4.32654 8.47584 5.5234 9.67271 6.99981 9.67271Z" stroke="white" stroke-width="1.5" stroke-miterlimit="10"/>
<path d="M10.4319 4.31319C10.7745 4.31319 11.0523 4.0354 11.0523 3.69273C11.0523 3.35006 10.7745 3.07227 10.4319 3.07227C10.0892 3.07227 9.8114 3.35006 9.8114 3.69273C9.8114 4.0354 10.0892 4.31319 10.4319 4.31319Z" fill="white"/>
</svg>
