<svg width="24" height="14" viewBox="0 0 24 14" fill="none" xmlns="http://www.w3.org/2000/svg">
<path d="M22.6 7L22.9893 7.31374C23.1369 7.13061 23.1369 6.86939 22.9893 6.68626L22.6 7ZM22.6 7C22.9893 7.31374 22.9892 7.31388 22.9891 7.31404L22.9887 7.31448L22.9877 7.31576L22.9843 7.31994L22.9722 7.3347C22.9618 7.34732 22.9468 7.36546 22.9273 7.38876C22.8882 7.43535 22.831 7.50257 22.7565 7.58747C22.6077 7.75723 22.3897 7.99793 22.1099 8.28592C21.5508 8.86134 20.7419 9.62856 19.7412 10.3966C17.7516 11.9236 14.9438 13.5 11.8 13.5C8.65619 13.5 5.8484 11.9236 3.85882 10.3966C2.85805 9.62856 2.04917 8.86134 1.4901 8.28592C1.2103 7.99793 0.992345 7.75723 0.843483 7.58747C0.769034 7.50257 0.711812 7.43535 0.672723 7.38876C0.653177 7.36546 0.638159 7.34732 0.627783 7.3347L0.615713 7.31994L0.612314 7.31576L0.611278 7.31448L0.610926 7.31404C0.610797 7.31388 0.610686 7.31374 1 7M22.6 7C22.9893 6.68626 22.9892 6.68612 22.9891 6.68596L22.9887 6.68552L22.9877 6.68424L22.9843 6.68006L22.9722 6.6653C22.9618 6.65268 22.9468 6.63454 22.9273 6.61124C22.8882 6.56465 22.831 6.49743 22.7565 6.41253C22.6077 6.24277 22.3897 6.00207 22.1099 5.71408C21.5508 5.13866 20.7419 4.37144 19.7412 3.60336C17.7516 2.07637 14.9438 0.5 11.8 0.5C8.65619 0.5 5.8484 2.07637 3.85882 3.60336C2.85805 4.37144 2.04917 5.13866 1.4901 5.71408C1.2103 6.00207 0.992345 6.24277 0.843483 6.41253C0.769034 6.49743 0.711812 6.56465 0.672723 6.61124C0.653177 6.63454 0.638159 6.65268 0.627783 6.6653L0.615713 6.68006L0.612314 6.68424L0.611278 6.68552L0.610926 6.68596C0.610797 6.68612 0.610686 6.68626 1 7M1 7L0.610686 7.31374C0.463105 7.13061 0.463105 6.86939 0.610686 6.68626L1 7Z" stroke="#193153" stroke-linecap="round" stroke-linejoin="round"/>
<circle cx="11.8" cy="6.9999" r="3.1" stroke="#193153"/>
</svg>
