<svg width="50" height="32" viewBox="0 0 50 32" fill="none" xmlns="http://www.w3.org/2000/svg">
<path d="M46.4998 13.5938L45.205 8.41464C45.559 8.33945 45.8246 8.02538 45.8246 7.64911V6.81406C45.8246 5.00097 44.3495 3.52597 42.5365 3.52597H36.6389V1.80351C36.6389 0.911328 35.9131 0.185547 35.0209 0.185547H4.9582C4.06602 0.185547 3.34023 0.911328 3.34023 1.80351V15.9998C3.34023 16.4321 3.69072 16.7827 4.12314 16.7827C4.55547 16.7827 4.90605 16.4322 4.90605 15.9998V1.80351C4.90605 1.77471 4.92939 1.75137 4.9582 1.75137H35.0208C35.0496 1.75137 35.0729 1.77471 35.0729 1.80351V16C35.0729 16.4323 35.4234 16.7829 35.8559 16.7829C36.2882 16.7829 36.6388 16.4324 36.6388 16V15.1125H45.874C45.8748 15.1125 45.8754 15.1127 45.8761 15.1127C45.8769 15.1127 45.8775 15.1126 45.8782 15.1126C47.0146 15.1134 47.9796 15.8593 48.311 16.8871H45.8767C45.4443 16.8871 45.0937 17.2376 45.0937 17.67V19.3401C45.0937 20.6928 46.1941 21.7931 47.5468 21.7931H48.4341V25.2378H46.387C45.7145 23.2961 43.8687 21.8974 41.7013 21.8974C39.5338 21.8974 37.6879 23.2961 37.0155 25.2378H36.6386V19.34C36.6386 18.9077 36.2881 18.5571 35.8557 18.5571C35.4233 18.5571 35.0728 18.9076 35.0728 19.34V25.2376H18.8298C18.1573 23.2959 16.3115 21.8972 14.144 21.8972C11.9766 21.8972 10.1307 23.2959 9.4583 25.2376H4.9582C4.92939 25.2376 4.90605 25.2142 4.90605 25.1854V23.4631H8.29853C8.73086 23.4631 9.08144 23.1126 9.08144 22.6802C9.08144 22.2477 8.73096 21.8972 8.29853 21.8972H0.78291C0.350586 21.8972 0 22.2477 0 22.6802C0 23.1126 0.350488 23.4631 0.78291 23.4631H3.34033V25.1854C3.34033 26.0776 4.06611 26.8034 4.9583 26.8034H9.18721C9.18701 26.8208 9.18584 26.8381 9.18584 26.8555C9.18584 29.5895 11.4102 31.8137 14.144 31.8137C16.8779 31.8137 19.1022 29.5895 19.1022 26.8555C19.1022 26.838 19.1011 26.8208 19.1009 26.8034H36.7444C36.7442 26.8208 36.7431 26.8381 36.7431 26.8555C36.7431 29.5895 38.9674 31.8137 41.7013 31.8137C44.4352 31.8137 46.6595 29.5895 46.6595 26.8555C46.6595 26.838 46.6583 26.8208 46.6581 26.8034H49.217C49.6493 26.8034 49.9999 26.4529 49.9999 26.0205V17.6698C50 15.6081 48.4788 13.8951 46.4998 13.5938ZM36.6389 5.09169H42.5365C43.4862 5.09169 44.2589 5.86435 44.2589 6.81406V6.8662H36.6389V5.09169ZM36.6389 13.5468V8.43193H43.5954L44.8741 13.5468H36.6389ZM14.144 30.2482C12.2734 30.2482 10.7516 28.7264 10.7516 26.8557C10.7516 24.985 12.2734 23.4633 14.144 23.4633C16.0146 23.4633 17.5365 24.985 17.5365 26.8557C17.5365 28.7264 16.0146 30.2482 14.144 30.2482ZM41.7015 30.2482C39.8309 30.2482 38.309 28.7264 38.309 26.8557C38.309 24.985 39.8309 23.4633 41.7015 23.4633C43.5721 23.4633 45.0939 24.985 45.0939 26.8557C45.0939 28.7264 43.5721 30.2482 41.7015 30.2482ZM48.4343 20.2273H47.547C47.0577 20.2273 46.6597 19.8293 46.6597 19.34V18.4527H48.4342V20.2273H48.4343Z" fill="white"/>
<path d="M14.1438 25.2378C13.2517 25.2378 12.5259 25.9636 12.5259 26.8558C12.5259 27.748 13.2517 28.4737 14.1438 28.4737C15.036 28.4737 15.7618 27.748 15.7618 26.8558C15.7618 25.9636 15.036 25.2378 14.1438 25.2378Z" fill="white"/>
<path d="M41.7015 25.2378C40.8093 25.2378 40.0835 25.9636 40.0835 26.8558C40.0835 27.748 40.8093 28.4737 41.7015 28.4737C42.5937 28.4737 43.3194 27.748 43.3194 26.8558C43.3194 25.9636 42.5937 25.2378 41.7015 25.2378Z" fill="white"/>
<path d="M32.5154 21.8979H20.8244C20.3921 21.8979 20.0415 22.2484 20.0415 22.6809C20.0415 23.1133 20.392 23.4638 20.8244 23.4638H32.5154C32.9477 23.4638 33.2983 23.1133 33.2983 22.6809C33.2983 22.2484 32.9478 21.8979 32.5154 21.8979Z" fill="white"/>
<path d="M12.4737 18.5576H2.45283C2.02051 18.5576 1.66992 18.9081 1.66992 19.3405C1.66992 19.7729 2.02041 20.1234 2.45283 20.1234H12.4737C12.906 20.1234 13.2566 19.7729 13.2566 19.3405C13.2566 18.9081 12.906 18.5576 12.4737 18.5576Z" fill="white"/>
<path d="M27.2238 7.9309C26.9181 7.62523 26.4223 7.62523 26.1166 7.93099L19.1545 14.893L15.5327 11.2712C15.227 10.9655 14.7313 10.9655 14.4256 11.2712C14.1198 11.577 14.1198 12.0726 14.4256 12.3784L18.601 16.5538C18.7538 16.7067 18.9542 16.7831 19.1545 16.7831C19.3548 16.7831 19.5553 16.7067 19.708 16.5538L27.2237 9.03812C27.5294 8.73226 27.5294 8.23666 27.2238 7.9309Z" fill="white"/>
</svg>
