<svg width="22" height="22" viewBox="0 0 22 22" fill="none" xmlns="http://www.w3.org/2000/svg">
<path d="M5.23139 16.4576H2.42187C1.86959 16.4576 1.42188 16.0099 1.42188 15.4576V6.9082C1.42188 6.35592 1.86959 5.9082 2.42188 5.9082H19.8358C20.388 5.9082 20.8358 6.35592 20.8358 6.9082V15.4576C20.8358 16.0099 20.388 16.4576 19.8358 16.4576H17.4219" stroke="#A5AEB9" stroke-miterlimit="10" stroke-linecap="round" stroke-linejoin="round"/>
<path d="M5.37793 5.90841V2C5.37793 1.44771 5.82564 1 6.37793 1H15.8065C16.3588 1 16.8065 1.44772 16.8065 2V5.90841" stroke="#A5AEB9" stroke-miterlimit="10" stroke-linecap="round" stroke-linejoin="round"/>
<path d="M15.953 11.2563H6.30469C5.7524 11.2563 5.30469 11.7041 5.30469 12.2563V19.9999C5.30469 20.5522 5.7524 20.9999 6.30469 20.9999H15.953C16.5053 20.9999 16.953 20.5522 16.953 19.9999V12.2563C16.953 11.7041 16.5053 11.2563 15.953 11.2563Z" stroke="#A5AEB9" stroke-miterlimit="10" stroke-linecap="round" stroke-linejoin="round"/>
<path d="M7.79492 13.6006H14.3883" stroke="#A5AEB9" stroke-miterlimit="10" stroke-linecap="round" stroke-linejoin="round"/>
<path d="M7.79492 16.1646H14.3883" stroke="#A5AEB9" stroke-miterlimit="10" stroke-linecap="round" stroke-linejoin="round"/>
<path d="M7.79492 18.6553H14.3883" stroke="#A5AEB9" stroke-miterlimit="10" stroke-linecap="round" stroke-linejoin="round"/>
<path d="M3.91211 9.32617C4.46439 9.32617 4.91211 8.87846 4.91211 8.32617C4.91211 7.77389 4.46439 7.32617 3.91211 7.32617C3.35982 7.32617 2.91211 7.77389 2.91211 8.32617C2.91211 8.87846 3.35982 9.32617 3.91211 9.32617Z" fill="#A5AEB9"/>
</svg>
