<svg width="11" height="12" viewBox="0 0 11 12" fill="none" xmlns="http://www.w3.org/2000/svg">
<path d="M10.6838 6.94424C10.7635 6.57118 10.8047 6.18451 10.8047 5.78782C10.8047 2.81264 8.45625 0.400271 5.55844 0.400271C5.25319 0.400271 4.95344 0.427481 4.66125 0.479037C4.19238 0.176148 3.63756 0 3.04288 0C1.36194 0 0 1.39844 0 3.12484C0 3.70126 0.152625 4.24044 0.418 4.70516C0.348562 5.05459 0.311438 5.41691 0.311438 5.78782C0.311438 8.76372 2.66062 11.1761 5.55775 11.1761C5.88637 11.1761 6.20744 11.1446 6.51888 11.0859C6.94788 11.3222 7.43738 11.4568 7.95781 11.4568C9.63806 11.4568 11 10.0576 11 8.33266C11 7.83358 10.8859 7.36313 10.6838 6.94424ZM8.24931 8.36274C8.00663 8.71575 7.64844 8.99501 7.183 9.19264C6.72306 9.38955 6.17238 9.4898 5.544 9.4898C4.7905 9.4898 4.15869 9.35375 3.66506 9.08451C3.31237 8.88903 3.02225 8.62481 2.80156 8.29686C2.57812 7.96748 2.46606 7.64024 2.46606 7.32375C2.46606 7.12683 2.53962 6.9557 2.68469 6.81607C2.82838 6.67644 3.01263 6.60698 3.23263 6.60698C3.41275 6.60698 3.56813 6.66212 3.69463 6.77167C3.81494 6.87693 3.91875 7.03303 4.00194 7.23281C4.09475 7.45192 4.19581 7.63666 4.30237 7.78059C4.40619 7.92165 4.554 8.03908 4.74306 8.13145C4.9335 8.22311 5.18994 8.27108 5.50481 8.27108C5.93862 8.27108 6.29475 8.17585 6.5615 7.98824C6.82344 7.80565 6.94994 7.58511 6.94994 7.31587C6.94994 7.10392 6.88325 6.93637 6.74781 6.80533C6.60481 6.66785 6.41644 6.56116 6.18819 6.4874C5.94963 6.4115 5.62581 6.32844 5.22569 6.24252C4.6805 6.12293 4.21781 5.98116 3.85069 5.82005C3.47462 5.65535 3.17075 5.42765 2.94937 5.14266C2.72388 4.85266 2.60975 4.48963 2.60975 4.06286C2.60975 3.65615 2.72938 3.28953 2.96588 2.97304C3.20031 2.65869 3.54269 2.41308 3.98475 2.24625C4.41994 2.08084 4.93762 1.99706 5.52406 1.99706C5.99225 1.99706 6.40406 2.05291 6.7485 2.16318C7.09431 2.27346 7.38581 2.42239 7.61475 2.60642C7.84575 2.79259 8.01762 2.9895 8.12488 3.19573C8.2335 3.40338 8.28919 3.61032 8.28919 3.8101C8.28919 4.00271 8.217 4.17815 8.074 4.32995C7.92963 4.4839 7.74813 4.56123 7.535 4.56123C7.34113 4.56123 7.1885 4.51182 7.08331 4.41659C6.985 4.32708 6.88256 4.18745 6.76981 3.98839C6.63919 3.73348 6.48037 3.53227 6.29887 3.38978C6.12219 3.25158 5.82794 3.18284 5.42231 3.18284C5.04694 3.18284 4.74031 3.26017 4.51344 3.41341C4.29481 3.5602 4.18825 3.72918 4.18825 3.92968C4.18825 4.05212 4.22262 4.15452 4.29344 4.24259C4.36769 4.33711 4.47287 4.41802 4.60625 4.48676C4.74375 4.55765 4.88606 4.61494 5.02838 4.65503C5.17413 4.69657 5.41819 4.75886 5.75437 4.83834C6.17925 4.93143 6.56906 5.03669 6.91419 5.15054C7.26413 5.26439 7.56525 5.40545 7.81275 5.57086C8.06369 5.73913 8.26237 5.95395 8.404 6.21172C8.54562 6.47165 8.61713 6.79029 8.61713 7.16121C8.61644 7.60444 8.49269 8.00901 8.24931 8.36274Z" fill="white"/>
</svg>
