<svg width="24" height="32" viewBox="0 0 24 32" fill="none" xmlns="http://www.w3.org/2000/svg">
<path fill-rule="evenodd" clip-rule="evenodd" d="M12.0385 27.6262L10.6607 26.8063C8.7742 25.5879 5.37325 23.8153 4.1928 21.9744C3.54373 20.9609 3.45641 19.7995 3.45641 18.1636V7.89242C5.73762 7.89242 8.79698 6.71954 10.6607 5.55807C10.8239 5.45558 10.9377 5.37212 11.1009 5.26584C11.4198 5.04948 11.7045 4.84069 12.0385 4.66229L12.4636 4.97356C12.6268 5.07984 12.7407 5.15576 12.9039 5.26584C14.9459 6.62849 18.0812 7.89242 20.5484 7.89242V18.0155C20.5484 19.5907 20.4915 20.8509 19.8955 21.8378C19.3793 22.688 18.4266 23.5269 17.5991 24.0924L12.0385 27.6262ZM1.1069 5.03051H0.518555V19.8488C0.518555 21.5113 1.26251 23.0941 1.98748 24.0317C2.77319 25.0565 3.2135 25.383 4.13965 26.1383C5.11135 26.9316 7.34322 28.2942 8.47434 28.9889L12.0385 31.1486L12.8773 30.5906C14.4601 29.6189 17.713 27.7287 19.0187 26.757C19.2996 26.552 19.5577 26.385 19.8272 26.1686C20.7154 25.4589 21.2392 25.0261 21.987 24.0734C22.7347 23.1169 23.4824 21.5151 23.4824 19.8488V5.03051C19.6146 5.03051 17.341 4.62053 14.1792 2.52152C13.8186 2.28239 12.2207 1.11715 12.0385 0.847656C11.6855 1.08299 11.3514 1.39803 11.0136 1.65614C10.6568 1.92943 10.2848 2.21411 9.91287 2.46462C9.52571 2.71893 9.15754 2.96942 8.73622 3.19716C6.13618 4.60156 4.26112 5.03051 1.1069 5.03051Z" fill="#193153"/>
<path fill-rule="evenodd" clip-rule="evenodd" d="M10.5159 17.0061L7.87405 14.4022L5.93066 16.3836L10.4779 20.9688L18.5134 12.9713C18.3653 12.7587 16.8053 11.1228 16.513 11.0469L10.5159 17.0061Z" fill="#193153"/>
</svg>
