<svg width="37" height="37" viewBox="0 0 37 37" fill="none" xmlns="http://www.w3.org/2000/svg">
<path d="M0.800293 21.2714H8.20085V23.7012L15.6047 18.8417L8.20085 13.9854V16.4151H0.800293V21.2714Z" fill="#193153"/>
<path d="M16.4128 0.799805V8.20364H13.9863L18.8426 15.6042L23.7022 8.20364H21.2724V0.799805H16.4128Z" fill="#193153"/>
<path d="M36.8879 21.2714H29.4841V23.7012L22.0835 18.8417L29.4841 13.9854V16.4151H36.8879V21.2714Z" fill="#193153"/>
<path d="M16.4128 36.8874V29.4835H13.9863L18.8426 22.083L23.7022 29.4835H21.2724V36.8874H16.4128Z" fill="#193153"/>
<path d="M18.8428 21.2842C20.1919 21.2842 21.2856 20.1905 21.2856 18.8413C21.2856 17.4921 20.1919 16.3984 18.8428 16.3984C17.4936 16.3984 16.3999 17.4921 16.3999 18.8413C16.3999 20.1905 17.4936 21.2842 18.8428 21.2842Z" fill="#193153"/>
</svg>
