<svg width="31" height="22" viewBox="0 0 31 22" fill="none" xmlns="http://www.w3.org/2000/svg">
<path d="M29.4592 5.50095H27.1025H24.4008L19.2917 0.42383C18.8299 -0.0348692 18.084 -0.0325124 17.6253 0.429094C17.1665 0.8907 17.1688 1.63684 17.6304 2.09554L21.0573 5.50087H9.51266L13.0088 2.01251C13.4695 1.55287 13.4703 0.806722 13.0106 0.346058C12.551 -0.114605 11.8048 -0.11547 11.3442 0.344173L6.17599 5.50087H3.53511H1.17837C0.527595 5.50087 0 6.02847 0 6.67924C0 7.33001 0.527595 7.85761 1.17837 7.85761H2.53687L4.7295 21.0096C4.82424 21.5776 5.31562 21.994 5.89145 21.9942L24.7457 22C24.7458 22 24.7459 22 24.7461 22C25.322 22 25.8137 21.5835 25.9084 21.0153L28.1007 7.85753H29.4592C30.11 7.85753 30.6376 7.32994 30.6376 6.67916C30.6376 6.02855 30.11 5.50095 29.4592 5.50095ZM23.7478 19.643L6.89008 19.6378L4.92621 7.85769H25.7115L23.7478 19.643Z" fill="white"/>
<path d="M8.91101 16.2383C8.97802 16.8409 9.48826 17.2866 10.0807 17.2866C10.1243 17.2866 10.1681 17.2842 10.2124 17.2793C10.8592 17.2074 11.3253 16.6249 11.2534 15.978L10.7292 11.2627C10.6574 10.6158 10.0752 10.1497 9.42792 10.2217C8.78116 10.2936 8.31507 10.8762 8.38695 11.523L8.91101 16.2383Z" fill="white"/>
<path d="M15.3187 17.284C15.9695 17.284 16.4971 16.7564 16.4971 16.1056V11.3932C16.4971 10.7424 15.9695 10.2148 15.3187 10.2148C14.668 10.2148 14.1404 10.7424 14.1404 11.3932V16.1056C14.1404 16.7564 14.668 17.284 15.3187 17.284Z" fill="white"/>
<path d="M20.4265 17.2736C20.4708 17.2786 20.5146 17.2809 20.5581 17.2809C21.1506 17.2809 21.6608 16.8352 21.7278 16.2326L22.251 11.523C22.3228 10.876 21.8568 10.2934 21.2099 10.2216C20.5638 10.1499 19.9806 10.6158 19.9087 11.2627L19.3855 15.9723C19.3136 16.6192 19.7798 17.2017 20.4265 17.2736Z" fill="white"/>
</svg>
