<svg width="38" height="28" viewBox="0 0 38 28" fill="none" xmlns="http://www.w3.org/2000/svg">
<path fill-rule="evenodd" clip-rule="evenodd" d="M18.9961 15.4233C13.667 15.4233 9.34372 16.1369 9.34372 17.0175C9.34372 17.8943 13.667 18.6078 18.9961 18.6078C24.3291 18.6078 28.6486 17.8943 28.6486 17.0175C28.6486 16.1369 24.3291 15.4233 18.9961 15.4233ZM11.5604 25.0529L12.1222 25.0567L12.6877 25.0529L12.6839 25.0605H12.6953L13.7277 26.7345L12.9117 26.446L12.7371 27.2962L12.1222 26.1271L11.5073 27.2962L11.3365 26.446L10.5204 26.7345L11.549 25.0605H11.5642L11.5604 25.0529ZM8.40998 19.8376H8.44795H10.9607V24.8555H8.40998V24.8517C7.73434 24.8138 7.19537 23.7055 7.19537 22.3466C7.19537 20.984 7.73434 19.8794 8.40998 19.8376ZM13.352 19.8376H33.3514C32.6568 19.8376 32.095 20.9612 32.095 22.3466C32.095 23.7321 32.6568 24.8555 33.3514 24.8555H13.352V19.8376ZM11.5262 19.8566H12.6649V24.8631H11.5262V19.8566ZM30.7362 16.5923H33.1351L32.171 13.0965C32.0723 13.1231 31.9698 13.1345 31.8635 13.1345C31.7458 13.1345 31.632 13.1193 31.5257 13.0927L30.7362 16.5923ZM31.5674 3.74019H32.1254V10.5268C32.0381 10.5116 31.9508 10.5041 31.8635 10.5041C31.761 10.5041 31.6623 10.5154 31.5674 10.5344V3.74019ZM27.043 1.43238L30.8576 3.37961V6.73114C29.9505 5.86572 28.2386 5.46722 27.2555 5.25846C24.6175 4.70049 21.6911 4.53352 18.9961 4.53352C16.305 4.53352 13.3785 4.70049 10.7367 5.25846C9.68153 5.4824 7.7761 5.92647 6.94105 6.93992L6.51593 7.35748V8.57968L1.13366 5.83541C-0.278336 5.11423 0.708552 4.16148 3.32757 3.71739L19.7135 0.931324C22.3288 0.487229 25.6272 0.714996 27.043 1.43238ZM32.8314 4.38543L36.8624 6.43886C38.2744 7.16004 37.2875 8.11279 34.6685 8.55688L32.8314 8.86816V4.38543ZM31.8635 11.3353C31.594 11.3353 31.3777 11.5517 31.3777 11.8174C31.3777 12.0869 31.594 12.3033 31.8635 12.3033C32.1292 12.3033 32.3493 12.0869 32.3493 11.8174C32.3493 11.5517 32.1292 11.3353 31.8635 11.3353ZM7.62807 8.05583H7.64326V8.04823C7.64326 6.71974 12.7257 5.64563 18.9961 5.64563C25.2704 5.64563 30.3528 6.71974 30.3528 8.04823V8.05583H30.368V16.3532H30.3073C29.7986 15.1272 24.9288 14.1631 18.9961 14.1631C13.0673 14.1631 8.19743 15.1272 7.68881 16.3532H7.62807V8.05583ZM19.9109 12.4247H19.9944C20.7346 12.4171 21.1635 12.0831 21.2811 11.4264L21.8391 8.33291C22.0365 7.24354 21.8998 7.98375 22.0099 7.33848H21.6987H21.9036C21.1635 7.34608 20.7346 7.67625 20.6169 8.33291L20.5676 8.61758C20.4954 9.03511 20.5676 8.61761 20.4575 9.21733L20.0589 11.415V11.4264C19.9716 11.8971 19.7287 12.2007 19.3264 12.3374C19.2353 12.3677 19.1366 12.3829 19.0493 12.4247H19.2467H19.4061H19.9109ZM18.2674 11.6428L18.2636 11.6541C18.1877 11.8819 18.0662 12.0565 17.8916 12.1818L17.8802 12.1932L17.8764 12.197L17.865 12.2046L17.8536 12.2122H17.8499L17.8461 12.216C17.8347 12.2236 17.8233 12.2311 17.8119 12.2387H17.8081C17.7436 12.2766 17.6714 12.3108 17.5917 12.3374L17.5766 12.345C17.5272 12.3602 17.4779 12.3716 17.4209 12.383C17.383 12.3943 17.3488 12.4057 17.3147 12.4247H17.5082H17.512H17.6677H17.6715H18.1763H18.2598C18.2712 12.4247 18.2826 12.4247 18.2939 12.4209C19.0113 12.4057 19.4289 12.0717 19.5465 11.4264L19.5845 11.2025C19.5996 11.119 19.6376 10.895 19.649 10.8191L19.9109 9.37672C19.9944 8.93262 20.021 8.79221 20.0286 8.73907L20.0513 8.61758L20.0931 8.3785H19.7705H19.9754C19.2694 8.38609 18.8481 8.68971 18.7077 9.28942L18.3243 11.415L18.3205 11.4264C18.3091 11.5024 18.2901 11.5745 18.2674 11.6428ZM16.4644 12.4247H16.5479C17.2881 12.4171 17.717 12.0831 17.8347 11.4264L18.1459 9.66519C18.1535 9.62724 18.1649 9.55134 18.1915 9.39571H17.8764H18.0852C17.345 9.40331 16.9161 9.73357 16.7984 10.3902L16.7225 10.8039C16.7036 10.9064 16.6352 11.2898 16.6125 11.415L16.6087 11.4264L16.6049 11.4492L16.6011 11.4643V11.4795L16.5973 11.4909C16.5973 11.4985 16.5935 11.5061 16.5935 11.5137L16.5897 11.5251L16.5859 11.5403L16.5821 11.5517L16.5783 11.5706V11.5744C16.5745 11.582 16.5707 11.5896 16.5707 11.601L16.5669 11.6086L16.5631 11.6276L16.5593 11.6314C16.5555 11.639 16.5555 11.6465 16.5517 11.6579L16.5479 11.6617L16.5403 11.6845C16.4227 12.011 16.2025 12.2273 15.8799 12.3374C15.8685 12.3412 15.8609 12.345 15.8495 12.3488C15.8078 12.3602 15.7584 12.3754 15.7129 12.383C15.6749 12.3943 15.637 12.4057 15.6028 12.4247H15.8002H15.804H15.9596H15.9634H16.4644Z" fill="#193153"/>
</svg>
