<svg width="10" height="10" viewBox="0 0 10 10" fill="none" xmlns="http://www.w3.org/2000/svg">
<path d="M9.74996 7.91667L8.24996 6.33333C7.91663 6 7.41663 6 7.0833 6.33333L6.3333 7.16667C6.24996 7.16667 6.24996 7.08333 6.16663 7.08333C5.66663 6.83333 4.99996 6.41667 4.3333 5.75C3.5833 5 3.24996 4.33333 2.91663 3.83333C2.91663 3.75 2.8333 3.75 2.8333 3.66667L3.3333 3.16667L3.5833 2.91667C3.91663 2.58333 3.91663 2.08333 3.5833 1.75L2.0833 0.25C1.74996 -0.0833333 1.24996 -0.0833333 0.916629 0.25L0.499963 0.666667C0.416629 0.916667 0.249963 1.08333 0.166629 1.33333C0.0832959 1.58333 0.0832959 1.75 -3.73945e-05 2C-0.166704 3.66667 0.583296 5.25 2.66663 7.33333C5.5833 10.25 7.91663 10 7.99996 10C8.24996 10 8.41663 9.91667 8.66663 9.83333C8.91663 9.75 9.08329 9.58333 9.33329 9.5L9.74996 9.08333C10.0833 8.75 10.0833 8.25 9.74996 7.91667Z" fill="#355FB6"/>
</svg>
