<svg width="25" height="33" viewBox="0 0 25 33" fill="none" xmlns="http://www.w3.org/2000/svg">
<path fill-rule="evenodd" clip-rule="evenodd" d="M0.521973 2.57317V24.8462C0.521973 25.2144 0.620686 25.6737 0.738353 25.9394C0.856019 26.1937 1.12548 26.558 1.32666 26.7251C1.87703 27.1881 2.48434 27.3286 3.46363 27.3286H7.77552C7.93494 27.3286 8.94839 26.3379 9.01671 26.0874C8.20444 25.9014 8.50808 25.556 7.58193 25.5636L3.66101 25.5674C2.9702 25.5674 2.28697 25.5901 2.28697 24.9145V2.50858C2.28697 2.07967 2.63616 1.85573 3.07266 1.85573H19.6636C20.7833 1.85573 20.5139 3.05521 20.5139 4.26983V14.1348C21.4286 14.2107 21.8044 15.0268 22.1118 15.7366C22.1877 15.915 22.1498 15.8276 22.2105 15.8998V2.57317C22.2181 1.78746 22.0321 1.32435 21.6412 0.922009C21.3223 0.591784 20.7985 0.155273 20.1874 0.155273H2.67794C1.49369 0.155273 0.521973 1.24088 0.521973 2.57317Z" fill="#193153"/>
<path fill-rule="evenodd" clip-rule="evenodd" d="M11.1729 21.4491C11.1729 23.0053 11.6359 24.1022 12.5582 25.0284C14.1866 26.6605 16.8892 26.8997 18.768 25.5218C20.2863 24.4097 21.0492 22.508 20.6279 20.5532C20.2559 18.8186 18.8287 17.3535 17.0903 16.9701C13.8943 16.2641 11.1729 18.6706 11.1729 21.4491Z" fill="#193153"/>
<path fill-rule="evenodd" clip-rule="evenodd" d="M15.8107 16.0934C20.4794 16.0934 23.068 21.1455 20.4452 24.8463C18.8283 27.1351 15.5905 27.8714 13.2334 26.4443C12.8501 26.2127 12.3528 25.8712 12.034 25.5523C11.7341 25.2525 11.3812 24.7514 11.1686 24.3946C10.2576 22.8764 10.2083 21.043 10.8725 19.4526C11.6544 17.5776 13.7155 16.0934 15.8107 16.0934ZM11.8252 15.247C11.5785 15.247 11.328 15.3874 11.1989 15.5317C10.7397 16.0441 10.9446 17.2929 10.584 17.8623C10.4322 18.1052 9.70343 18.3974 9.3846 18.553C9.14926 18.6707 8.95948 18.7618 8.7697 18.9212C8.11305 19.4716 8.55334 20.1511 8.81524 20.6027C9.14167 21.1645 9.27835 21.3732 9.27835 21.9084C9.27835 22.4133 8.42808 23.2597 8.42808 23.9316C8.42808 24.9602 10.1134 25.0475 10.5575 25.6548C10.7739 25.9471 10.8497 26.8049 10.9105 27.2642C11.1382 28.9912 12.6299 28.0498 13.7193 28.0498C14.4139 28.0498 14.8769 29.6175 16.0688 29.6175C16.5698 29.6175 17.3214 28.6381 17.6516 28.3231C18.5967 27.4235 20.6578 29.3746 20.9804 27.3401C21.0525 26.8998 21.1019 26.0761 21.2955 25.761C21.8003 24.9336 23.4514 25.1499 23.4514 23.867C23.4514 23.1572 22.6012 22.4626 22.6012 21.7111C22.6012 21.0924 24.0891 19.6842 23.1363 18.8909C22.8213 18.629 21.6295 18.2874 21.322 17.8357C21.1133 17.532 21.0526 16.6742 20.988 16.2718C20.6578 14.1538 18.6157 16.0972 17.6858 15.2622C16.9304 14.5866 16.752 13.9375 15.8107 13.9375C15.3097 13.9375 14.5581 14.9168 14.2279 15.2318C13.6358 15.7936 12.7096 15.247 11.8252 15.247Z" fill="#193153"/>
<path fill-rule="evenodd" clip-rule="evenodd" d="M5.48661 7.21018H17.1811C18.7525 7.21018 18.2781 5.57422 17.6366 5.57422H5.16019C4.3593 5.57422 4.02147 7.21018 5.48661 7.21018Z" fill="#193153"/>
<path fill-rule="evenodd" clip-rule="evenodd" d="M5.48656 11.2601H17.2456C18.6273 11.2601 18.4336 9.62793 17.5075 9.62793H5.09564C4.91344 9.62793 4.38965 9.97341 4.48454 10.5617C4.56804 11.0666 4.92859 11.2601 5.48656 11.2601Z" fill="#193153"/>
<path fill-rule="evenodd" clip-rule="evenodd" d="M20.119 28.8317C19.2498 28.8317 19.0145 28.6381 18.225 28.6381C18.0618 28.6381 17.9252 28.8583 17.7695 28.9646C17.9555 29.2417 20.5555 31.7885 21.0148 32.2478C21.4247 32.654 21.8803 32.5856 22.0397 32.2516C22.1232 32.0694 22.256 31.1698 22.3016 30.8813C22.3699 30.4221 22.1953 30.5018 23.3492 30.2969C23.8426 30.2096 24.4309 30.2209 24.4309 29.6819C24.4309 29.31 23.4972 28.5166 23.11 28.1295C22.7457 27.7689 21.9789 26.9149 21.6221 26.6758C21.6031 27.6285 21.2388 28.8317 20.119 28.8317Z" fill="#193153"/>
<path fill-rule="evenodd" clip-rule="evenodd" d="M9.53668 30.4639C9.54807 30.8814 9.77579 32.2934 10.0908 32.468C10.5729 32.7337 11.0208 32.0846 11.5484 31.5608C11.9508 31.1546 13.9321 29.2303 14.1105 28.9646C13.636 28.2548 13.3551 28.8317 11.7609 28.8317C11.2713 28.8317 10.8158 28.4635 10.626 28.1371C10.3679 27.6968 10.3793 27.2072 10.2579 26.6758L7.56674 29.348C7.42251 29.5871 7.45666 29.9287 7.69578 30.0881C7.82484 30.1754 9.28996 30.4601 9.53668 30.4639Z" fill="#193153"/>
</svg>
