<svg width="32" height="32" viewBox="0 0 32 32" fill="none" xmlns="http://www.w3.org/2000/svg">
<path fill-rule="evenodd" clip-rule="evenodd" d="M8.09953 6.13033C8.09574 6.22143 8.1033 6.28216 8.07673 6.37326C8.03119 6.52888 8.01602 6.49093 7.99704 6.5175C7.80726 7.23868 7.06331 7.88773 6.15994 7.88773C5.16927 7.88394 4.57332 7.10584 4.13681 6.67693C3.58264 6.12656 3.07782 5.61794 2.52745 5.06757C2.25416 4.79428 2.01125 4.55132 1.73416 4.27424C1.56715 4.10723 1.10027 3.56445 0.910483 3.5189C0.0147021 5.30667 0.303209 7.62205 1.2787 9.08718C2.10616 10.3322 3.48018 11.5012 5.62474 11.6986L6.65715 11.7138C7.19614 11.7518 7.71997 11.4784 8.19822 11.3873L20.0863 23.2754C20.0255 23.5715 19.9231 23.8031 19.8509 24.1409C19.6612 25.048 19.6991 26.0804 19.98 26.9534C20.6556 29.079 22.2081 30.5594 24.3906 31.0072C25.9544 31.3299 26.7098 30.9807 27.9737 30.5745C27.8902 30.3658 25.461 27.9973 25.0966 27.6329C24.7208 27.2647 23.9996 26.6384 23.7605 26.0994C23.0621 24.5318 24.6184 22.8276 26.3302 23.5753C27.0552 23.8904 29.8716 26.9914 30.737 27.7733C31.0938 27.3596 31.2608 25.8906 31.3291 25.7198V24.6836C31.2646 24.5622 31.1355 23.7765 30.9723 23.3362C30.0538 20.8121 27.4271 19.2444 24.8423 19.5633C24.2615 19.6316 23.6998 19.848 23.5024 19.8707C22.9786 19.3963 22.5231 18.8876 22.0069 18.3866L17.5432 13.9305C16.5563 12.9322 15.5846 11.9263 14.5711 10.9584L11.6029 7.97123L11.8611 6.90466C11.8649 6.82116 11.8686 6.6921 11.8762 6.61239C11.8838 6.56684 11.8876 6.5289 11.899 6.48715C11.9597 6.2632 11.9066 6.45296 11.956 6.36186C11.8914 4.38052 11.4321 3.18488 10.4452 2.05377C9.82654 1.34018 8.77136 0.649398 7.75791 0.376109C7.47703 0.300195 6.73308 0.205262 6.57366 0.144531H5.75758C5.60575 0.209058 4.12542 0.383682 3.7041 0.73668L6.14095 3.18868C6.56606 3.6062 6.95702 3.99716 7.37834 4.42607C7.86419 4.91951 8.00843 5.20798 8.09953 6.13033Z" fill="#193153"/>
<path fill-rule="evenodd" clip-rule="evenodd" d="M0.314453 27.8125V28.4578C0.367593 28.5831 0.375169 29.012 0.583932 29.4523C0.758533 29.8129 0.883807 29.9913 1.12294 30.2532C1.3279 30.4733 1.58602 30.6593 1.89347 30.8187C2.23508 31.0009 2.65257 31.0389 2.89549 31.1603H3.57493C3.82165 31.0351 4.25435 30.9819 4.60735 30.7921C5.24882 30.4467 6.17497 29.4257 6.70637 28.8829C8.90787 26.6397 11.265 24.3812 13.4437 22.1418L14.7912 20.8171C14.6963 20.6197 13.9713 19.9327 13.7663 19.7391C13.4399 19.4278 10.8968 16.7861 10.6539 16.6836C10.4717 16.9189 10.1984 17.158 9.97445 17.3858L1.27857 26.0779C0.363812 27.0344 0.618108 27.2811 0.314453 27.8125Z" fill="#193153"/>
<path fill-rule="evenodd" clip-rule="evenodd" d="M31.3294 2.24356V2.14106C31.0979 2.00822 30.5589 1.39712 30.3197 1.158C30.1034 0.941641 29.4467 0.341907 29.3329 0.144531H29.2304C28.9723 0.41782 25.2981 2.11453 25.0855 2.36884L23.3889 5.62932C22.8726 6.65036 23.0017 6.46058 22.1818 7.24629L17.9307 11.5392C18.0901 11.8049 18.6253 12.2756 18.9137 12.5602C19.0542 12.7007 19.2477 12.879 19.4185 13.0499L19.7867 13.4219C19.8854 13.5168 19.8437 13.4826 19.9347 13.5433C20.3371 13.3042 24.1328 9.29215 24.8919 8.61652C25.0703 8.4571 25.5372 8.24075 25.8105 8.10031C26.4672 7.7625 27.0213 7.47781 27.678 7.14C27.974 6.98437 28.2549 6.84014 28.5927 6.66933C29.2797 6.32772 29.09 6.47195 29.3519 5.99749C29.6745 5.42055 30.0199 4.72592 30.3122 4.13L31.2763 2.3043C31.28 2.29671 31.2953 2.28154 31.3028 2.27395C31.3104 2.26636 31.3218 2.25494 31.3294 2.24356Z" fill="#193153"/>
</svg>
