<svg width="19" height="19" viewBox="0 0 19 19" fill="none" xmlns="http://www.w3.org/2000/svg">
<g clip-path="url(#clip0)">
<path fill-rule="evenodd" clip-rule="evenodd" d="M9.5 3.57628e-07C14.7467 3.57628e-07 19 4.2533 19 9.5C19 14.7467 14.7467 19 9.5 19C4.2533 19 0 14.7467 0 9.5C0 4.2533 4.2533 3.57628e-07 9.5 3.57628e-07ZM10.069 3.86972C10.7149 3.95034 11.2369 4.10594 11.8097 4.38531C12.373 4.66094 12.7335 4.92154 13.2105 5.39589C13.6574 5.844 13.9053 6.18339 14.1682 6.71024C14.5343 7.44523 14.7428 8.31894 14.7784 9.28078C14.7916 9.60888 14.7822 9.68202 14.7071 9.77576C14.5644 9.95765 14.2508 9.92761 14.1438 9.72326C14.1099 9.65575 14.1005 9.59766 14.0893 9.33515C14.0705 8.93204 14.0424 8.67143 13.986 8.36018C13.7644 7.13961 13.1786 6.16463 12.2434 5.46527C11.4641 4.8803 10.6586 4.5953 9.6033 4.53343C9.24651 4.51281 9.18453 4.49971 9.10379 4.43783C8.95354 4.3197 8.94607 4.04222 9.09064 3.91285C9.1789 3.83222 9.24085 3.82096 9.54694 3.83034C9.70656 3.83596 9.94128 3.85472 10.069 3.86972ZM5.77637 4.07222C5.84211 4.09471 5.94351 4.1472 6.00173 4.18471C6.35848 4.42096 7.35182 5.69026 7.67669 6.324C7.86257 6.68586 7.92454 6.95398 7.86636 7.15272C7.80624 7.36646 7.70675 7.47896 7.26171 7.83708C7.08331 7.98143 6.91617 8.12957 6.8899 8.16895C6.82229 8.26645 6.76782 8.45768 6.76782 8.59267C6.76973 8.90579 6.97253 9.4739 7.23918 9.91077C7.44571 10.2501 7.81561 10.6851 8.18179 11.0189C8.6118 11.4126 8.99111 11.6807 9.41925 11.8926C9.96943 12.1663 10.3056 12.2357 10.5516 12.1213C10.6135 12.0932 10.6792 12.0557 10.6999 12.0388C10.7187 12.0219 10.8633 11.8457 11.021 11.6507C11.3252 11.2682 11.3947 11.2064 11.6031 11.1351C11.8679 11.0451 12.1383 11.0695 12.4106 11.2082C12.6171 11.3151 13.0678 11.5945 13.3588 11.7969C13.7419 12.0651 14.5606 12.7326 14.6714 12.8657C14.8667 13.1057 14.9005 13.4131 14.769 13.7525C14.6301 14.1106 14.0893 14.7819 13.7118 15.0687C13.3701 15.3275 13.1279 15.4268 12.8086 15.4418C12.5458 15.4549 12.4369 15.4324 12.1007 15.2937C9.46434 14.2081 7.35934 12.5882 5.6881 10.3626C4.81496 9.20016 4.15021 7.99459 3.69577 6.744C3.43103 6.01466 3.4179 5.69777 3.63569 5.32466C3.7296 5.16717 4.12956 4.77719 4.42061 4.5597C4.90509 4.1997 5.12854 4.06658 5.30693 4.02909C5.42898 4.00283 5.64116 4.02347 5.77637 4.07222ZM10.1985 5.22903C11.3384 5.39589 12.2209 5.92465 12.7993 6.78337C13.1241 7.2671 13.3269 7.8352 13.3964 8.44455C13.4208 8.66767 13.4208 9.07454 13.3945 9.14204C13.3701 9.20578 13.2912 9.29203 13.2236 9.32763C13.1504 9.36514 12.9946 9.36141 12.9082 9.31639C12.7636 9.24328 12.7204 9.12704 12.7204 8.81205C12.7204 8.32645 12.5946 7.81457 12.3768 7.41708C12.1289 6.96335 11.7684 6.58838 11.329 6.32775C10.9515 6.10276 10.3938 5.9359 9.88496 5.89466C9.70092 5.87964 9.59952 5.84214 9.53004 5.76152C9.42303 5.63964 9.41174 5.47466 9.50187 5.3378C9.59952 5.18592 9.74973 5.16153 10.1985 5.22903ZM10.5985 6.64461C10.9684 6.72336 11.252 6.86398 11.4942 7.09086C11.8059 7.3852 11.9768 7.74145 12.0519 8.25331C12.1026 8.58705 12.082 8.71829 11.9636 8.82704C11.8529 8.92828 11.6482 8.93202 11.5242 8.8364C11.4341 8.7689 11.4059 8.69767 11.3853 8.50456C11.3609 8.24768 11.3158 8.0677 11.2389 7.90082C11.0736 7.54646 10.7825 7.36272 10.2906 7.30272C10.0596 7.27459 9.9901 7.24835 9.915 7.16024C9.77792 6.99711 9.83048 6.73274 10.0201 6.63524C10.0915 6.59962 10.1216 6.59587 10.2793 6.60525C10.3769 6.61087 10.5215 6.62772 10.5985 6.64461Z" fill="white"/>
<path d="M0.235721 18.9079L2.05846 15.1637L4.09846 17.3521L0.235721 18.9079Z" fill="white"/>
</g>
<defs>
<clipPath id="clip0">
<rect width="19" height="19" fill="white"/>
</clipPath>
</defs>
</svg>
