<svg width="12" height="16" viewBox="0 0 12 16" fill="none" xmlns="http://www.w3.org/2000/svg">
<path d="M5.33979 10.9082L4.75526 10.7765C3.51099 10.664 2.33413 10.2129 1.38093 9.48337C1.19852 9.35753 1.06767 9.18063 1.00895 8.98047C0.97832 8.82337 0.990091 8.66193 1.04327 8.50979C1.09646 8.35765 1.18949 8.21929 1.3145 8.10638C1.48008 7.94226 1.70646 7.83831 1.9511 7.81405C2.19574 7.7898 2.44178 7.84692 2.64298 7.97467C2.92196 8.11836 3.16109 8.29797 3.44007 8.44165C4.06187 8.72811 4.73782 8.90682 5.43278 8.9685C6.46662 9.08869 7.51731 8.95636 8.47499 8.58534C8.80025 8.44642 9.11141 8.28216 9.40493 8.09441C9.66742 7.92099 9.9829 7.82481 10.3083 7.81901C10.5053 7.82195 10.6971 7.87679 10.86 7.97679C11.0229 8.0768 11.1498 8.21758 11.2249 8.38178C11.2885 8.48225 11.3293 8.59309 11.345 8.70787C11.3607 8.82266 11.351 8.93911 11.3164 9.05049C11.2818 9.16186 11.223 9.26594 11.1435 9.35669C11.0639 9.44744 10.9652 9.52305 10.853 9.57916C10.3682 9.95919 9.81577 10.2628 9.21894 10.4772C8.63551 10.6734 8.02947 10.81 7.41221 10.8843H7.01367L7.13323 11.016L10.2153 13.7939C10.376 13.9228 10.4861 14.095 10.5292 14.2849C10.5723 14.4749 10.5461 14.6722 10.4544 14.8476C10.3703 15.0279 10.2303 15.1824 10.0513 15.2928C9.8722 15.4033 9.66165 15.4649 9.44478 15.4703C9.32 15.4694 9.19673 15.4456 9.08251 15.4003C8.96829 15.355 8.86554 15.2892 8.78054 15.2068L6.5487 13.2312L6.32286 12.9797C6.25644 12.9079 6.2033 12.9079 6.12359 12.9797L4.88811 14.0933C4.46299 14.4764 4.05117 14.8596 3.55963 15.2308C3.38132 15.3859 3.14319 15.4726 2.89539 15.4726C2.64759 15.4726 2.40946 15.3859 2.23115 15.2308C2.04001 15.0816 1.90919 14.8794 1.85918 14.656C1.82943 14.5213 1.8369 14.382 1.88091 14.2505C1.92493 14.1189 2.00414 13.9991 2.11159 13.9017L3.77219 12.405L5.23351 11.028L5.33979 10.9082Z" fill="white"/>
<path d="M6.16415 1.78167e-05C7.02558 -0.00232394 7.86834 0.226227 8.58532 0.656624C9.30229 1.08702 9.8611 1.69983 10.1907 2.41716C10.5204 3.1345 10.6059 3.92397 10.4366 4.68525C10.2672 5.44652 9.85054 6.14522 9.23954 6.69255C8.62854 7.23988 7.85079 7.61111 7.00513 7.75908C6.15948 7.90705 5.28411 7.82507 4.49028 7.52356C3.69645 7.22204 3.02 6.71461 2.5469 6.06576C2.0738 5.4169 1.82541 4.65591 1.83331 3.87952C1.84033 2.84841 2.29971 1.8617 3.11114 1.13483C3.92257 0.407964 5.02013 -1.58811e-06 6.16415 1.78167e-05V1.78167e-05ZM4.01201 3.89149C4.00684 4.27458 4.12764 4.65047 4.35919 4.97175C4.59074 5.29304 4.92266 5.54533 5.31308 5.6968C5.70351 5.84828 6.13497 5.89215 6.55303 5.8229C6.97109 5.75364 7.35703 5.57436 7.66218 5.30765C7.96734 5.04095 8.17803 4.69877 8.26769 4.32427C8.35735 3.94978 8.32197 3.55974 8.166 3.20334C8.01003 2.84695 7.74046 2.54017 7.39129 2.32169C7.04212 2.10321 6.62899 1.98281 6.204 1.97569C5.92026 1.97093 5.63829 2.0168 5.3743 2.11066C5.11031 2.20451 4.86952 2.3445 4.66579 2.52256C4.46206 2.70062 4.29941 2.91323 4.18721 3.14817C4.07501 3.38311 4.01547 3.63573 4.01201 3.89149V3.89149Z" fill="white"/>
</svg>
