<svg width="239" height="40" viewBox="0 0 239 40" fill="none" xmlns="http://www.w3.org/2000/svg">
<path fill-rule="evenodd" clip-rule="evenodd" d="M25.4493 39.9528H25.9534C30.3039 39.8896 32.8432 37.6556 33.5621 33.2721L36.9416 12.5555C38.118 5.27419 37.3057 10.211 37.9639 5.89062H36.1108H37.3337C32.9693 5.95385 30.4299 8.17197 29.7158 12.5713L29.4077 14.4733C28.9876 17.2763 29.4077 14.4733 28.7495 18.4934L26.3502 33.193L26.3362 33.2721C25.8274 36.4228 24.385 38.467 21.9997 39.3838C21.4676 39.5892 20.8748 39.6683 20.3566 39.9528H21.5376H22.4619H25.4493ZM5.09266 39.9844H5.58279C9.94726 39.9212 12.4866 37.7031 13.2008 33.3037L14.8299 23.3248C14.8579 23.0561 14.9279 22.5661 15.0959 21.5071H13.2428H14.4518C10.1013 21.5703 7.56197 23.7989 6.84779 28.1878L6.381 30.9591C6.25497 31.6388 6.12893 32.3975 5.9889 33.2247L5.97489 33.3195L5.94689 33.4617V33.4776L5.93288 33.5724L5.90487 33.683L5.89087 33.7304C5.89087 33.7937 5.87687 33.8411 5.86286 33.9043L5.84886 33.9675L5.82085 34.0624L5.80685 34.1572L5.77884 34.2837L5.76484 34.2995V34.3153C5.75083 34.3627 5.73683 34.4101 5.72283 34.4733L5.70882 34.5208L5.68082 34.6472L5.66681 34.6946C5.65281 34.742 5.63881 34.7895 5.6248 34.8527L5.6108 34.8843L5.56879 35.0265L5.55478 35.0424C4.8546 37.2289 3.54759 38.6883 1.6431 39.4312C1.58708 39.447 1.53107 39.4628 1.47505 39.4786C1.20431 39.5734 0.924241 39.6683 0.644168 39.7315C0.42011 39.7947 0.210055 39.8738 0 40.0002H1.1623H1.17631H1.19031H2.10522H2.13322L5.09266 39.9844ZM15.7541 34.742L15.7401 34.8211C15.292 36.3279 14.5498 37.5134 13.5369 38.3564V38.3722L13.4528 38.4354L13.4248 38.4512L13.3688 38.4986L13.2848 38.5619H13.2708V38.5777C13.2008 38.6251 13.1308 38.6725 13.0467 38.7199L13.0327 38.7357C12.6406 39.0044 12.2065 39.2257 11.7444 39.3996L11.6744 39.4312C11.3803 39.5418 11.0676 39.6367 10.7455 39.7157C10.5214 39.7789 10.3114 39.8579 10.1153 39.9844L11.2636 39.9686H11.2823H12.1925H12.2205H15.208H15.6981C15.7681 39.9686 15.8381 39.9686 15.8941 39.9686C20.1326 39.8421 22.6019 37.6082 23.3021 33.2879L23.5588 31.7652C23.6382 31.212 23.7269 30.6746 23.8109 30.1688L25.3793 20.506C25.8554 17.545 26.0281 16.6124 26.0795 16.2489L26.2242 15.4217L26.4622 13.8411H24.5531H25.7714C21.6076 13.9043 19.1103 15.9328 18.2654 19.9528L16.1042 33.2088H16.0902L16.0762 33.3037C15.9922 33.8095 15.8941 34.2837 15.7541 34.742Z" fill="white"/>
<path d="M231.901 0.916754H230.272V6.19073H229.315V0.916754H227.686V0H231.901V0.916754ZM238.996 6.19073H238.044V1.12223C237.964 1.36986 237.843 1.74921 237.684 2.26554L236.354 6.19073H235.476L234.104 2.26554C234.025 2.03899 233.908 1.65964 233.749 1.12223V6.19073H232.932V0H234.183L235.579 3.99368C235.616 4.10432 235.756 4.51001 235.957 5.1844C235.976 5.11591 236.116 4.71022 236.335 3.99368L237.703 0H238.996V6.19073Z" fill="white"/>
<path fill-rule="evenodd" clip-rule="evenodd" d="M125.501 12.3182H131.009L126.752 38.9304H134.248L138.305 12.2971H143.93L144.905 5.85346H127.074H126.355L125.501 12.3182ZM198.838 5.85346H201.326H205.401H206.731L208.183 28.6722L217.267 5.85346H219.176H222.677H225.081L223.214 38.7723H216.669L218.42 15.8377L208.818 38.7512V38.7723H208.799H204.206H204.187L204.206 38.7512L202.32 16.9177L196.294 38.7723H189.712L198.838 5.85346ZM180.372 32.4446H170.947L167.824 38.9093H160.888L176.236 5.87453L184.288 5.83238L188.284 38.9093H181.049L180.372 32.4446ZM173.393 26.4752L179.653 26.5226L178.224 14.6733L173.393 26.4752ZM42.6411 5.85346H49.6009L46.5761 23.9831C46.1 26.7702 46.1233 28.8988 46.6181 30.3793C47.1129 31.8387 48.0512 32.5816 49.4422 32.5816C52.383 32.5816 52.6397 29.6838 53.6153 23.962L56.6401 5.83238L63.5579 5.85346L60.5751 23.6037C59.7582 28.4299 59.3615 32.3761 57.2749 34.8682C56.7568 35.4952 56.0799 36.3961 55.3658 36.9335C53.1765 38.5932 50.2778 39.4467 47.8925 39.3993C44.6716 39.3571 42.1043 38.4562 40.7319 36.9335C38.1693 34.1042 38.7434 29.099 39.7003 23.5142L42.6411 5.85346ZM69.2434 38.9304H62.9184L68.3285 5.83238H74.392L81.4266 25.7375L84.6661 5.85346L90.7296 5.83238L85.3429 38.9304L79.5174 38.9093L72.3615 18.4667H72.2215L69.2434 38.9304ZM95.5609 5.83238H102.679L97.274 38.9304H90.1368L95.5609 5.83238ZM101.447 37.8503L104.589 30.9167C106.535 31.7491 107.114 31.9493 109.499 32.3972C111.744 32.8503 115.441 29.8208 113.154 27.06C112.599 26.3856 112.323 26.0273 110.792 25.2423C106.236 22.8608 104.649 19.5205 105.485 15.0526C106.022 12.1601 107.072 9.9367 109.28 8.05578C111.488 6.19066 114.13 5.24756 117.211 5.24756C118.924 5.24756 120.394 5.54261 121.743 5.99045C122.541 6.23807 123.353 6.45936 124.012 6.88613L121.048 13.3719C119.082 12.5869 118.583 12.3182 116.618 12.1812C115.381 12.0916 114.685 12.2971 113.873 12.8766C113.075 13.4615 112.781 13.7091 112.599 14.6522C112.44 15.5268 112.599 16.2433 113.075 16.8703C113.532 17.4762 114.709 18.4878 115.838 19.1411C118.009 20.374 119.577 21.5595 120.413 23.1559C121.248 24.747 121.584 26.8809 121.15 29.257C120.59 32.2865 119.12 35.0263 116.874 36.9125C114.606 38.7934 112.183 39.6943 108.127 39.4678C105.821 39.3308 103.734 38.8197 101.447 37.8503ZM162.181 18.4193L160.669 25.4214L152.238 25.511L151.328 32.4025H160.272L159.217 38.9304H143.117L148.761 5.85346H165.122L163.889 12.2971H154.544L153.452 18.4193H162.181Z" fill="white"/>
</svg>
