<?xml version="1.0" encoding="UTF-8"?>
<!DOCTYPE svg PUBLIC "-//W3C//DTD SVG 1.1//EN" "http://www.w3.org/Graphics/SVG/1.1/DTD/svg11.dtd">
<!-- Creator: CorelDRAW X8 -->
<svg xmlns="http://www.w3.org/2000/svg" xml:space="preserve" width="512px" height="512px" version="1.1" style="shape-rendering:geometricPrecision; text-rendering:geometricPrecision; image-rendering:optimizeQuality; fill-rule:evenodd; clip-rule:evenodd"
viewBox="0 0 512 512"
 xmlns:xlink="http://www.w3.org/1999/xlink">
 <defs>
  <style type="text/css">
   <![CDATA[
    .fil0 {fill:white}
   ]]>
  </style>
 </defs>
 <g id="Слой_x0020_1">
  <metadata id="CorelCorpID_0Corel-Layer"/>
  <path class="fil0" d="M343 459l7 0c59,-1 93,-27 103,-80l45 -247c16,-87 5,-28 14,-80l-25 0 16 0c-58,1 -93,27 -102,80l-4 23c-6,33 0,0 -9,48l-33 175 0 0 0 1c-7,38 -26,62 -58,73 -8,3 -15,4 -22,7l15 0 13 0 40 0 0 0zm-274 1l6 0 0 0c59,-1 93,-28 103,-80l22 -119c0,-4 1,-10 4,-22l-25 0 16 0c-59,1 -93,27 -103,80l-6 33c-2,8 -3,17 -5,27l0 0 0 0 0 0 0 1 0 0 -1 2 0 0 0 1 0 1 -1 1c0,1 0,1 0,2l0 1 0 1 -1 1 0 1 0 1 0 0c0,0 -1,1 -1,2l0 0 0 2 -1 0c0,1 0,2 0,2l0 1 -1 1 0 1c-10,26 -27,43 -53,52 -1,0 -1,0 -2,1 -4,1 -8,2 -11,3 -3,0 -6,1 -9,3l16 0 0 0 0 0 12 0 0 0 1 0 40 0 0 0 0 0 0 0 0 0zm143 -63l0 1c-6,18 -16,32 -29,42l0 0 -2 1 0 0 -1 1 -1 1 0 0 0 0c-1,0 -2,1 -3,1l0 1c-6,3 -11,6 -18,8l-1 0c-4,1 -8,2 -12,3 -3,1 -6,2 -9,4l16 -1 0 0 0 0 12 0 1 0 0 0 40 0 0 0 0 0 7 0 0 0c1,0 2,0 2,0l0 0c58,-1 91,-28 100,-79l4 -19c1,-6 2,-13 3,-19l21 -115c7,-36 9,-47 10,-51l2 -10 3 -19 -26 0 17 0c-57,1 -90,25 -102,73l-29 159 0 0 0 1c-1,6 -3,11 -5,17z"/>
 </g>
</svg>
