<svg width="11" height="11" viewBox="0 0 11 11" fill="none" xmlns="http://www.w3.org/2000/svg">
<g clip-path="url(#clip0)">
<path d="M10.8486 0.153411C10.6471 -0.0483701 10.3201 -0.0483701 10.1186 0.153411L0.155178 10.1168C-0.0465176 10.3184 -0.0465176 10.6452 0.155178 10.8468C0.255982 10.9477 0.388154 10.9981 0.52024 10.9981C0.652326 10.9981 0.784498 10.9477 0.885217 10.8468L10.8486 0.883364C11.0503 0.681755 11.0503 0.355021 10.8486 0.153411Z" fill="white"/>
<path d="M2.45231 0.00598145C1.10017 0.00598145 0 1.10624 0 2.45838C0 3.81052 1.10017 4.91069 2.45231 4.91069C3.80454 4.91069 4.90463 3.81043 4.90463 2.45829C4.90463 1.10615 3.80445 0.00598145 2.45231 0.00598145ZM2.45231 3.87807C1.66942 3.87807 1.03254 3.2411 1.03254 2.45829C1.03254 1.67549 1.66951 1.03852 2.45231 1.03852C3.2352 1.03852 3.87209 1.67549 3.87209 2.45829C3.87209 3.2411 3.2352 3.87807 2.45231 3.87807Z" fill="white"/>
<path d="M8.54753 6.0929C7.19539 6.0929 6.09521 7.19307 6.09521 8.54521C6.09521 9.89735 7.19539 10.9975 8.54753 10.9975C9.89967 10.9975 10.9998 9.89743 10.9998 8.54521C10.9998 7.19298 9.89967 6.0929 8.54753 6.0929ZM8.54753 9.9649C7.76464 9.9649 7.12775 9.32793 7.12775 8.54512C7.12775 7.76232 7.76472 7.12535 8.54753 7.12535C9.33033 7.12535 9.9673 7.76232 9.9673 8.54512C9.9673 9.32793 9.33042 9.9649 8.54753 9.9649Z" fill="white"/>
</g>
<defs>
<clipPath id="clip0">
<rect width="11" height="11" fill="white"/>
</clipPath>
</defs>
</svg>
