<svg width="11" height="11" viewBox="0 0 11 11" fill="none" xmlns="http://www.w3.org/2000/svg">
<g clip-path="url(#clip0)">
<path d="M10.8485 0.153411C10.647 -0.0483701 10.32 -0.0483701 10.1185 0.153411L0.155056 10.1168C-0.0466396 10.3184 -0.0466396 10.6452 0.155056 10.8468C0.25586 10.9477 0.388032 10.9981 0.520118 10.9981C0.652204 10.9981 0.784376 10.9477 0.885094 10.8468L10.8485 0.883364C11.0502 0.681755 11.0502 0.355021 10.8485 0.153411Z" fill="#2EB134"/>
<path d="M2.45231 0.00598145C1.10017 0.00598145 0 1.10624 0 2.45838C0 3.81052 1.10017 4.91069 2.45231 4.91069C3.80454 4.91069 4.90463 3.81043 4.90463 2.45829C4.90463 1.10615 3.80445 0.00598145 2.45231 0.00598145ZM2.45231 3.87807C1.66942 3.87807 1.03254 3.2411 1.03254 2.45829C1.03254 1.67549 1.66951 1.03852 2.45231 1.03852C3.2352 1.03852 3.87209 1.67549 3.87209 2.45829C3.87209 3.2411 3.2352 3.87807 2.45231 3.87807Z" fill="#2EB134"/>
<path d="M8.54771 6.0929C7.19557 6.0929 6.0954 7.19307 6.0954 8.54521C6.0954 9.89735 7.19557 10.9975 8.54771 10.9975C9.89985 10.9975 11 9.89743 11 8.54521C11 7.19298 9.89985 6.0929 8.54771 6.0929ZM8.54771 9.9649C7.76482 9.9649 7.12794 9.32793 7.12794 8.54512C7.12794 7.76232 7.76491 7.12535 8.54771 7.12535C9.33051 7.12535 9.96748 7.76232 9.96748 8.54512C9.96748 9.32793 9.3306 9.9649 8.54771 9.9649Z" fill="#2EB134"/>
</g>
<defs>
<clipPath id="clip0">
<rect width="11" height="11" fill="white"/>
</clipPath>
</defs>
</svg>
