<svg width="42" height="42" viewBox="0 0 42 42" fill="none" xmlns="http://www.w3.org/2000/svg">
<path d="M40.0244 25.1937V16.0473H36.0244C35.7317 14.8671 35.2439 13.7853 34.6586 12.7034L37.4878 9.85135L31.0488 3.36036L28.3171 6.40916C27.2439 5.81907 26.1707 5.32732 25 5.03228V1H15.9268V5.03228C14.7561 5.32732 13.6829 5.81907 12.6098 6.40916L9.87805 3.55706L3.53659 9.94969L6.36586 12.8018C5.78049 13.8836 5.29269 14.9655 5 16.1456H1V25.292H5C5.29269 26.4722 5.78049 27.554 6.36586 28.6359L3.53659 31.488L9.97562 37.979L12.8049 35.1269C13.8781 35.7169 14.9512 36.2087 16.122 36.5037V40.536H25.1951V36.5037C26.3659 36.2087 27.439 35.7169 28.5122 35.1269L31.3415 37.979L37.7805 31.488L34.6586 28.5375C35.2439 27.4557 35.7317 26.3739 36.0244 25.1937H40.0244ZM20.5122 31.8814C14.3659 31.8814 9.39025 26.8656 9.39025 20.6697C9.39025 14.4737 14.3659 9.45795 20.5122 9.45795C26.6586 9.45795 31.6342 14.4737 31.6342 20.6697C31.6342 26.8656 26.6586 31.8814 20.5122 31.8814Z" stroke="#193153" stroke-width="2" stroke-miterlimit="10" stroke-linecap="round" stroke-linejoin="round"/>
</svg>
