<svg width="42" height="42" viewBox="0 0 42 42" fill="none" xmlns="http://www.w3.org/2000/svg">
<mask id="path-1-outside-1" maskUnits="userSpaceOnUse" x="0.136719" y="0" width="42" height="42" fill="black">
<rect fill="white" x="0.136719" width="42" height="42"/>
<path d="M39.6225 4.64149L37.2189 2.23789C35.6514 0.67039 33.0101 0.579218 31.3309 2.03477L27.1066 5.69649C27.0526 5.74336 27.0062 5.79852 26.9693 5.85985L22.8572 12.7095L20.2169 13.5896C19.9937 13.664 19.8251 13.8486 19.7711 14.0774C19.7171 14.3063 19.7854 14.5467 19.9516 14.7131L27.1473 21.9087C27.2761 22.0374 27.4493 22.1074 27.6271 22.1074C27.679 22.1074 27.7313 22.1014 27.783 22.0892C28.0118 22.0352 28.1964 21.8666 28.2708 21.6434L29.1511 19.0023L36.1015 14.8054C36.1626 14.7684 36.2176 14.722 36.2644 14.6678L39.8394 10.5249C41.2868 8.84774 41.1894 6.20844 39.6225 4.64149ZM38.8122 9.63844L35.3077 13.6995L28.2358 17.9698C28.0978 18.0531 27.994 18.183 27.943 18.3361L27.3307 20.173L25.7092 18.5515L25.7083 18.5505L23.3097 16.152L23.3089 16.1513L21.6873 14.5297L23.5241 13.9174C23.6777 13.8662 23.808 13.7618 23.8912 13.6231L28.077 6.65094L32.2197 3.06C33.3722 2.06078 35.1844 2.12234 36.2594 3.19742L38.663 5.60102C39.7385 6.67633 39.8054 8.48758 38.8122 9.63844Z"/>
<path d="M37.698 28.2596C35.7061 26.2678 32.7745 25.5755 30.1183 26.4366L15.7002 12.0184C16.5612 9.36228 15.8689 6.43056 13.8771 4.43868C11.7787 2.3404 8.63723 1.684 5.87363 2.76712C5.66059 2.85064 5.50387 3.03595 5.45707 3.26001C5.41027 3.484 5.47957 3.71658 5.64144 3.87845L9.95715 8.19407L7.07879 11.0724L2.76316 6.75665C2.60121 6.59486 2.36894 6.52571 2.14473 6.57228C1.92066 6.61907 1.73527 6.77571 1.65184 6.98884C0.568867 9.75228 1.22504 12.8938 3.3234 14.9924C5.31527 16.9841 8.24691 17.6766 10.9031 16.8154L16.2943 22.2066L9.58051 28.9206L5.31035 31.3081C5.1916 31.3745 5.09551 31.4752 5.03465 31.5969L3.11582 35.4345C2.98519 35.6957 3.03637 36.0112 3.24285 36.2177L5.64137 38.6163C5.7716 38.7466 5.94527 38.815 6.12129 38.815C6.22434 38.815 6.32816 38.7916 6.42457 38.7434L10.2622 36.8245C10.3839 36.7637 10.4846 36.6676 10.551 36.5488L12.9385 32.2786L19.6525 25.5648L25.3213 31.2337C24.4602 33.8898 25.1526 36.8216 27.1444 38.8134C28.5712 40.2402 30.48 41.0002 32.4246 41.0002C33.3399 41.0001 34.2633 40.8316 35.1479 40.4851C35.3609 40.4016 35.5176 40.2162 35.5644 39.9922C35.6112 39.7682 35.5419 39.5356 35.38 39.3737L31.0643 35.058L33.9426 32.1798L38.2582 36.4955C38.4201 36.6573 38.6525 36.7268 38.8767 36.6798C39.1007 36.633 39.2861 36.4764 39.3696 36.2633C40.4526 33.4997 39.7964 30.3581 37.698 28.2596ZM11.9124 31.3856C11.8682 31.4298 11.8305 31.4798 11.8 31.5343L9.46855 35.7043L6.25512 37.311L4.54809 35.604L6.15473 32.3905L10.3246 30.0591C10.3792 30.0286 10.4292 29.9909 10.4733 29.9467L17.2537 23.1663L18.6929 24.6054L11.9124 31.3856ZM38.4108 34.729L34.4224 30.7405C34.1574 30.4757 33.7279 30.4757 33.4629 30.7405L29.6253 34.5782C29.4981 34.7055 29.4266 34.878 29.4266 35.058C29.4266 35.238 29.4981 35.4104 29.6253 35.5377L33.6138 39.5262C31.6361 39.9192 29.5621 39.3123 28.1039 37.854C26.3869 36.137 25.85 33.5663 26.7361 31.305C26.8345 31.0539 26.7749 30.7684 26.5843 30.5777L11.559 15.5526C11.4293 15.423 11.2558 15.3539 11.0791 15.3539C10.996 15.3539 10.9121 15.3692 10.8318 15.4007C8.57051 16.287 5.9998 15.7499 4.28277 14.0331C2.82441 12.5746 2.21738 10.5006 2.61059 8.52306L6.59902 12.5116C6.86402 12.7765 7.29348 12.7763 7.55848 12.5116L11.3961 8.67392C11.6611 8.40892 11.6611 7.97946 11.3961 7.71446L7.40769 3.72595C9.38535 3.3322 11.4592 3.9397 12.9176 5.39822C14.6346 7.11517 15.1715 9.68587 14.2854 11.9472C14.187 12.1983 14.2466 12.4838 14.4372 12.6745L29.4623 27.6995C29.6531 27.8901 29.9387 27.9497 30.1896 27.8513C32.451 26.9654 35.0215 27.5021 36.7386 29.219C38.1971 30.6774 38.8039 32.7516 38.4108 34.729Z"/>
</mask>
<path d="M39.6225 4.64149L37.2189 2.23789C35.6514 0.67039 33.0101 0.579218 31.3309 2.03477L27.1066 5.69649C27.0526 5.74336 27.0062 5.79852 26.9693 5.85985L22.8572 12.7095L20.2169 13.5896C19.9937 13.664 19.8251 13.8486 19.7711 14.0774C19.7171 14.3063 19.7854 14.5467 19.9516 14.7131L27.1473 21.9087C27.2761 22.0374 27.4493 22.1074 27.6271 22.1074C27.679 22.1074 27.7313 22.1014 27.783 22.0892C28.0118 22.0352 28.1964 21.8666 28.2708 21.6434L29.1511 19.0023L36.1015 14.8054C36.1626 14.7684 36.2176 14.722 36.2644 14.6678L39.8394 10.5249C41.2868 8.84774 41.1894 6.20844 39.6225 4.64149ZM38.8122 9.63844L35.3077 13.6995L28.2358 17.9698C28.0978 18.0531 27.994 18.183 27.943 18.3361L27.3307 20.173L25.7092 18.5515L25.7083 18.5505L23.3097 16.152L23.3089 16.1513L21.6873 14.5297L23.5241 13.9174C23.6777 13.8662 23.808 13.7618 23.8912 13.6231L28.077 6.65094L32.2197 3.06C33.3722 2.06078 35.1844 2.12234 36.2594 3.19742L38.663 5.60102C39.7385 6.67633 39.8054 8.48758 38.8122 9.63844Z" fill="#193153"/>
<path d="M37.698 28.2596C35.7061 26.2678 32.7745 25.5755 30.1183 26.4366L15.7002 12.0184C16.5612 9.36228 15.8689 6.43056 13.8771 4.43868C11.7787 2.3404 8.63723 1.684 5.87363 2.76712C5.66059 2.85064 5.50387 3.03595 5.45707 3.26001C5.41027 3.484 5.47957 3.71658 5.64144 3.87845L9.95715 8.19407L7.07879 11.0724L2.76316 6.75665C2.60121 6.59486 2.36894 6.52571 2.14473 6.57228C1.92066 6.61907 1.73527 6.77571 1.65184 6.98884C0.568867 9.75228 1.22504 12.8938 3.3234 14.9924C5.31527 16.9841 8.24691 17.6766 10.9031 16.8154L16.2943 22.2066L9.58051 28.9206L5.31035 31.3081C5.1916 31.3745 5.09551 31.4752 5.03465 31.5969L3.11582 35.4345C2.98519 35.6957 3.03637 36.0112 3.24285 36.2177L5.64137 38.6163C5.7716 38.7466 5.94527 38.815 6.12129 38.815C6.22434 38.815 6.32816 38.7916 6.42457 38.7434L10.2622 36.8245C10.3839 36.7637 10.4846 36.6676 10.551 36.5488L12.9385 32.2786L19.6525 25.5648L25.3213 31.2337C24.4602 33.8898 25.1526 36.8216 27.1444 38.8134C28.5712 40.2402 30.48 41.0002 32.4246 41.0002C33.3399 41.0001 34.2633 40.8316 35.1479 40.4851C35.3609 40.4016 35.5176 40.2162 35.5644 39.9922C35.6112 39.7682 35.5419 39.5356 35.38 39.3737L31.0643 35.058L33.9426 32.1798L38.2582 36.4955C38.4201 36.6573 38.6525 36.7268 38.8767 36.6798C39.1007 36.633 39.2861 36.4764 39.3696 36.2633C40.4526 33.4997 39.7964 30.3581 37.698 28.2596ZM11.9124 31.3856C11.8682 31.4298 11.8305 31.4798 11.8 31.5343L9.46855 35.7043L6.25512 37.311L4.54809 35.604L6.15473 32.3905L10.3246 30.0591C10.3792 30.0286 10.4292 29.9909 10.4733 29.9467L17.2537 23.1663L18.6929 24.6054L11.9124 31.3856ZM38.4108 34.729L34.4224 30.7405C34.1574 30.4757 33.7279 30.4757 33.4629 30.7405L29.6253 34.5782C29.4981 34.7055 29.4266 34.878 29.4266 35.058C29.4266 35.238 29.4981 35.4104 29.6253 35.5377L33.6138 39.5262C31.6361 39.9192 29.5621 39.3123 28.1039 37.854C26.3869 36.137 25.85 33.5663 26.7361 31.305C26.8345 31.0539 26.7749 30.7684 26.5843 30.5777L11.559 15.5526C11.4293 15.423 11.2558 15.3539 11.0791 15.3539C10.996 15.3539 10.9121 15.3692 10.8318 15.4007C8.57051 16.287 5.9998 15.7499 4.28277 14.0331C2.82441 12.5746 2.21738 10.5006 2.61059 8.52306L6.59902 12.5116C6.86402 12.7765 7.29348 12.7763 7.55848 12.5116L11.3961 8.67392C11.6611 8.40892 11.6611 7.97946 11.3961 7.71446L7.40769 3.72595C9.38535 3.3322 11.4592 3.9397 12.9176 5.39822C14.6346 7.11517 15.1715 9.68587 14.2854 11.9472C14.187 12.1983 14.2466 12.4838 14.4372 12.6745L29.4623 27.6995C29.6531 27.8901 29.9387 27.9497 30.1896 27.8513C32.451 26.9654 35.0215 27.5021 36.7386 29.219C38.1971 30.6774 38.8039 32.7516 38.4108 34.729Z" fill="#193153"/>
<path d="M39.6225 4.64149L37.2189 2.23789C35.6514 0.67039 33.0101 0.579218 31.3309 2.03477L27.1066 5.69649C27.0526 5.74336 27.0062 5.79852 26.9693 5.85985L22.8572 12.7095L20.2169 13.5896C19.9937 13.664 19.8251 13.8486 19.7711 14.0774C19.7171 14.3063 19.7854 14.5467 19.9516 14.7131L27.1473 21.9087C27.2761 22.0374 27.4493 22.1074 27.6271 22.1074C27.679 22.1074 27.7313 22.1014 27.783 22.0892C28.0118 22.0352 28.1964 21.8666 28.2708 21.6434L29.1511 19.0023L36.1015 14.8054C36.1626 14.7684 36.2176 14.722 36.2644 14.6678L39.8394 10.5249C41.2868 8.84774 41.1894 6.20844 39.6225 4.64149ZM38.8122 9.63844L35.3077 13.6995L28.2358 17.9698C28.0978 18.0531 27.994 18.183 27.943 18.3361L27.3307 20.173L25.7092 18.5515L25.7083 18.5505L23.3097 16.152L23.3089 16.1513L21.6873 14.5297L23.5241 13.9174C23.6777 13.8662 23.808 13.7618 23.8912 13.6231L28.077 6.65094L32.2197 3.06C33.3722 2.06078 35.1844 2.12234 36.2594 3.19742L38.663 5.60102C39.7385 6.67633 39.8054 8.48758 38.8122 9.63844Z" stroke="#193153" stroke-width="0.6" mask="url(#path-1-outside-1)"/>
<path d="M37.698 28.2596C35.7061 26.2678 32.7745 25.5755 30.1183 26.4366L15.7002 12.0184C16.5612 9.36228 15.8689 6.43056 13.8771 4.43868C11.7787 2.3404 8.63723 1.684 5.87363 2.76712C5.66059 2.85064 5.50387 3.03595 5.45707 3.26001C5.41027 3.484 5.47957 3.71658 5.64144 3.87845L9.95715 8.19407L7.07879 11.0724L2.76316 6.75665C2.60121 6.59486 2.36894 6.52571 2.14473 6.57228C1.92066 6.61907 1.73527 6.77571 1.65184 6.98884C0.568867 9.75228 1.22504 12.8938 3.3234 14.9924C5.31527 16.9841 8.24691 17.6766 10.9031 16.8154L16.2943 22.2066L9.58051 28.9206L5.31035 31.3081C5.1916 31.3745 5.09551 31.4752 5.03465 31.5969L3.11582 35.4345C2.98519 35.6957 3.03637 36.0112 3.24285 36.2177L5.64137 38.6163C5.7716 38.7466 5.94527 38.815 6.12129 38.815C6.22434 38.815 6.32816 38.7916 6.42457 38.7434L10.2622 36.8245C10.3839 36.7637 10.4846 36.6676 10.551 36.5488L12.9385 32.2786L19.6525 25.5648L25.3213 31.2337C24.4602 33.8898 25.1526 36.8216 27.1444 38.8134C28.5712 40.2402 30.48 41.0002 32.4246 41.0002C33.3399 41.0001 34.2633 40.8316 35.1479 40.4851C35.3609 40.4016 35.5176 40.2162 35.5644 39.9922C35.6112 39.7682 35.5419 39.5356 35.38 39.3737L31.0643 35.058L33.9426 32.1798L38.2582 36.4955C38.4201 36.6573 38.6525 36.7268 38.8767 36.6798C39.1007 36.633 39.2861 36.4764 39.3696 36.2633C40.4526 33.4997 39.7964 30.3581 37.698 28.2596ZM11.9124 31.3856C11.8682 31.4298 11.8305 31.4798 11.8 31.5343L9.46855 35.7043L6.25512 37.311L4.54809 35.604L6.15473 32.3905L10.3246 30.0591C10.3792 30.0286 10.4292 29.9909 10.4733 29.9467L17.2537 23.1663L18.6929 24.6054L11.9124 31.3856ZM38.4108 34.729L34.4224 30.7405C34.1574 30.4757 33.7279 30.4757 33.4629 30.7405L29.6253 34.5782C29.4981 34.7055 29.4266 34.878 29.4266 35.058C29.4266 35.238 29.4981 35.4104 29.6253 35.5377L33.6138 39.5262C31.6361 39.9192 29.5621 39.3123 28.1039 37.854C26.3869 36.137 25.85 33.5663 26.7361 31.305C26.8345 31.0539 26.7749 30.7684 26.5843 30.5777L11.559 15.5526C11.4293 15.423 11.2558 15.3539 11.0791 15.3539C10.996 15.3539 10.9121 15.3692 10.8318 15.4007C8.57051 16.287 5.9998 15.7499 4.28277 14.0331C2.82441 12.5746 2.21738 10.5006 2.61059 8.52306L6.59902 12.5116C6.86402 12.7765 7.29348 12.7763 7.55848 12.5116L11.3961 8.67392C11.6611 8.40892 11.6611 7.97946 11.3961 7.71446L7.40769 3.72595C9.38535 3.3322 11.4592 3.9397 12.9176 5.39822C14.6346 7.11517 15.1715 9.68587 14.2854 11.9472C14.187 12.1983 14.2466 12.4838 14.4372 12.6745L29.4623 27.6995C29.6531 27.8901 29.9387 27.9497 30.1896 27.8513C32.451 26.9654 35.0215 27.5021 36.7386 29.219C38.1971 30.6774 38.8039 32.7516 38.4108 34.729Z" stroke="#193153" stroke-width="0.6" mask="url(#path-1-outside-1)"/>
</svg>
